<?xml version="1.0" encoding="UTF-8"?>
<!DOCTYPE svg PUBLIC "-//W3C//DTD SVG 1.1//EN" "http://www.w3.org/Graphics/SVG/1.1/DTD/svg11.dtd">
<!-- Creator: CorelDRAW 2018 (64-Bit) -->
<svg xmlns="http://www.w3.org/2000/svg" xml:space="preserve" width="115.513mm" height="40.582mm" version="1.1" style="shape-rendering:geometricPrecision; text-rendering:geometricPrecision; image-rendering:optimizeQuality; fill-rule:evenodd; clip-rule:evenodd"
viewBox="0 0 9577.24 3364.68"
 xmlns:xlink="http://www.w3.org/1999/xlink">
 <defs>
  <style type="text/css">
   <![CDATA[
    .fil0 {fill:#E63A29;fill-rule:nonzero}
    .fil1 {fill:#2873B9;fill-rule:nonzero}
   ]]>
  </style>
 </defs>
 <g id="Layer_x0020_1">
  <metadata id="CorelCorpID_0Corel-Layer"/>
  <g id="_4333913840">
   <!-- <g>
    <g>
     <path class="fil0" d="M682.29 130.81c0,0 382.89,-238.26 957.61,-71.63 354.05,102.64 -90.51,564.08 -530.35,234.36 0,0 -155.22,-136.56 -427.26,-162.73z"/>
     <path class="fil0" d="M1809.97 2354.9c0,0 -382.93,238.26 -957.6,71.7 -354.05,-102.67 90.51,-564.15 530.35,-234.43 0,0 155.21,136.56 427.26,162.73z"/>
     <path class="fil0" d="M153.44 644.85c0,0 191.84,-353.09 669.25,-269.32 229.3,40.2 282.34,262.86 734.98,208.71 306.91,-36.8 402.66,-363.75 402.66,-363.75 0,0 313.12,220.77 447.9,559.63 152.92,384.78 43.03,536.81 -1.11,579.46 -21.44,20.64 -283.8,318.58 -837.09,120.4 -553.28,-198.18 -532.63,-427.31 -1019.85,-551.17 -139.66,-35.59 -239.47,-41.31 -379.87,24.71 -140.39,66.07 -93.75,-195.27 -16.86,-308.68z"/>
     <path class="fil0" d="M52.62 1151.75c108.49,-47.54 390.18,-142.46 737.05,55.72 346.82,198.23 708.21,754.92 1539.72,386.96 169.02,-74.77 79.78,233.64 -158.59,412.05 -214.17,160.32 -483.26,173.91 -724.81,-5.73 -241.54,-179.59 -588.24,-149.14 -724.46,-31.45 -136.28,117.67 -184.48,295.25 -214.28,273.04 -94.45,-70.47 -344.25,-275.33 -450.51,-634.78 -45.15,-152.82 -99.14,-414.18 -4.12,-455.81z"/>
    </g>
    <g> -->
     <g>
      <path class="fil0" d="M5058.97 1859.65l3.95 -4.96c2.39,-3.34 5.73,-5.28 10.02,-5.73 4.34,-0.56 8.51,-1.78 12.58,-3.78l73.36 -20.49c7.02,-1.67 15.7,-3.01 26.01,-4l15.97 -5.02c4.4,-2 10.52,-2.94 18.54,-2.94l16.47 -3.57c1.34,0 2.51,1.3 3.52,3.79 0.99,2.51 1.78,3.79 2.49,3.79 15.6,-10.36 25.61,-15.53 29.96,-15.53l1 0 12.03 3c2,0 4.16,-1.33 6.52,-4.01l2 -2c7.34,3.34 11.3,5.02 11.96,5.02 5.02,0 10.64,-1.01 16.91,-3.02 6.41,-2 12.42,-2.99 18.04,-2.99l15.55 0.99 34.44 -2.01c1.96,0 4.12,1.01 6.52,3.02l10.02 -2.01c9.63,0 19.2,1.34 28.74,4 9.45,2.67 20.86,4.68 34.23,6.01 13.3,1.34 22.99,5.85 28.95,13.48l8.51 2.99 5.97 0c8.67,0 13.85,3.51 15.52,10.46 2.01,4.07 6.02,8.08 11.96,12.02l6.52 10.48c-0.66,2.01 -0.95,4.01 -0.95,6.01 0,2.01 3.63,4.34 10.92,7.01l2.01 1.01c0.33,4.96 3.55,10.73 9.51,17.2 6.02,6.5 8.96,18.59 8.96,36.29l0 11.96 2.01 26c0,17.64 -5.24,38.97 -15.7,63.96 -10.46,24.95 -21.53,42.48 -33.23,52.44 -2.66,9.03 -5.84,13.54 -9.47,13.54 -11.69,10.68 -19.2,15.97 -22.54,15.97 -0.61,0 -1.67,-0.33 -2.95,-0.99 -4.35,7.95 -11.57,14.96 -21.77,20.97 -10.18,6.02 -16.76,9.47 -19.71,10.53 -3,0.95 -10.69,3.79 -22.99,8.46l-11.96 -3c-5.02,4.68 -8.52,7.18 -10.52,7.51l-26.5 10.97c-22.33,6.01 -36.91,9.03 -43.92,9.03l-12.53 -4.01c-2.01,0 -5.02,2.5 -8.96,7.51l-9.52 2.01c-2,-2.01 -8.47,-3.5 -19.48,-4.51 -4.67,2.95 -8.52,4.51 -11.52,4.51l-21.94 3c-2.68,0 -4.35,-2.56 -5.02,-7.51l-4.52 1.5 -2 6.96c-1.33,0.72 -2.95,1.05 -4.96,1.05l-26.49 -2.99 -12.47 2.99 -20.55 -4 -9.91 1.01 -8.57 -4.01 -7.95 0.99 -8.02 -2 -9.53 2 -1.94 -0.99c-1.34,2.67 -3.02,4.85 -5.07,6.46 -1.96,1.73 -4.63,5.24 -7.98,10.52 -7.62,6.3 -12.46,14.03 -14.47,22.99 -2.01,9.01 -7.84,13.97 -17.49,15.02 -0.66,1.34 -1.65,2.95 -2.99,4.96 0.66,0.68 1.61,3.52 2.99,8.52l0 1.96c0,8.01 -6.5,16.18 -19.47,24.53 -2.01,11.98 -4.47,20.65 -7.25,26.01 -2.84,5.33 -4.78,9.68 -5.73,13.24 -1.01,3.52 -3.9,6.36 -8.51,8.74l-2.01 2.95 0 14.47c0,0.73 -0.95,2.79 -3.02,6.3 -2,3.5 -4.78,8.56 -8.51,15.26l-3.01 4.96 -3.95 16.52c-6.69,4.63 -10.08,11.14 -10.08,19.49l1.05 28.5c0,4.96 -3.27,10.13 -9.79,15.48 -6.46,5.35 -12.91,8.02 -19.21,8.02 -16.3,0 -27.55,-9.85 -33.56,-29.51l-2.95 -4.01c-7.01,-5.61 -10.46,-14.14 -10.46,-25.48 0,-12.98 6.79,-32.53 20.49,-58.47l32.95 -59.51c0.35,-0.61 4.68,-3.61 12.97,-8.96l5.57 2.01c1.28,-0.66 1.96,-2.01 1.96,-4.01 0,-0.66 -1.78,-5.51 -5.52,-14.52l0 -2c0,-2.62 1.19,-4.29 3.57,-4.96l3.96 -4.51 -1.01 -9.97c6.01,-9.01 9.24,-14.87 9.47,-17.47l5.07 -11.53c3.34,-7.67 6.01,-11.63 8.02,-12.03 0,-13.3 3.94,-23.1 11.96,-29.49l4.01 -8.47c0.95,-2.01 3.17,-3.17 6.47,-3.5 3.33,-0.33 5,-0.84 5,-1.46 0,-1.32 -0.5,-2.99 -1.45,-5.06 -1.05,-1.95 -1.54,-3.61 -1.54,-4.96 0,-3.33 1.89,-7.67 5.73,-13.02 3.83,-5.35 6.62,-7.96 8.23,-7.96l7.51 4.45 0 -2.95c-3.32,-3.01 -5,-5.51 -5,-7.51 0,-2.68 1.5,-6.24 4.51,-10.75 3,-4.51 4.84,-7.74 5.51,-9.75l3.95 -5c0.73,0 2.4,-4.63 5.07,-13.99 2.69,-9.29 6.47,-13.85 11.47,-13.46l0 -5.02c0,-3.35 3.83,-11.37 11.52,-23.99l26.51 -46.99c0.6,-3.33 3.27,-9.12 7.95,-17.49l-0.95 -12.02c0,-5.29 3.06,-13.64 9.24,-25 6.12,-11.23 11.23,-16.96 15.2,-16.96 2.01,0 3.44,0.38 4.23,0.99 0.88,0.66 1.61,1.01 2.27,1.01l8.02 -1.01 15.99 14.53c4.29,3.61 6.85,10.17 7.51,19.47l2 3.02c8.31,15.31 12.42,26.12 12.42,32.46 0,7.95 -0.66,14.08 -2.22,18.26 -1.45,4.16 -6.57,9.01 -15.26,14.76 -8.24,9.63 -13.41,18.08 -15.42,25.21 -2.06,7.18 -5.46,13.92 -10.31,20.2 -4.84,6.34 -9.01,15.7 -12.69,28.01 -3.72,12.36 -10.02,21.5 -18.99,27.51 -1.05,9.01 -2.33,16.63 -4.05,22.97l0 1.01c0,2 1.33,2.99 4.05,2.99l16.47 -2c2.01,0 4.4,0.51 7.25,1.51 2.84,0.99 5.51,1.44 8.23,1.44 2.67,0 6.02,-1.33 10.02,-3.95l2.95 0c1.34,0 5.51,1.67 12.53,5l2.01 -1.05c2.01,-3.28 4,-4.96 6.01,-4.96l19.43 2.01 9.52 -0.99c4.67,-3.02 11.91,-4.68 21.77,-5.02 9.78,-0.32 16.58,-1.32 20.48,-2.99 3.84,-1.61 7.23,-2.67 10.18,-3.02 3.06,-0.33 6.96,-1.66 11.81,-3.94 4.79,-2.34 8.85,-3.51 12.2,-3.51 7.73,0 18.36,-3.51 32,-10.46 4.68,1.33 7.35,1.94 8.02,1.94 6.34,0 11.47,-2.66 15.48,-7.95 4,-5.35 8.46,-8.37 13.47,-9.03l30.5 -13.52c2.67,-1.01 8.52,-6.45 17.54,-16.47l9.02 -6.01 5.95 -8.47c0,-0.66 3.17,-2.67 9.47,-6.01 -1.29,-0.66 -2.29,-1.61 -3.02,-3l11.03 -12.46c-0.65,-3.35 -1,-5.35 -1,-6.01l0 -2.01c3.41,-4.96 6.73,-8.7 10.24,-10.97 3.52,-2.35 5.24,-3.85 5.24,-4.51l-4.96 -6.01c4.68,-4.63 6.96,-7.63 6.96,-8.96l-2 -14.53 2 -25.5c0,-13.02 -0.77,-21.37 -2.45,-25.21 -1.72,-3.84 -2.84,-7.74 -3.5,-11.74 -6.36,-12.31 -15.2,-22.49 -26.51,-30.5 -0.99,-0.68 -1.49,-1.78 -1.49,-3.51l-0.99 -4.95 0 -2.01 -16.03 2.01c-0.61,0 -1.73,-1.67 -3.17,-5.02 -1.52,-3.28 -3.91,-5 -7.31,-5l-7.01 3 -1.01 0c-2.33,0 -8.13,-3.18 -17.46,-9.47 -1.96,-0.66 -6.13,-0.99 -12.49,-0.99l-7.01 -3.02c-2.01,-1.33 -3.67,-2.01 -4.96,-2.01l-3.06 0 -11.47 2.01 -25.49 -2.01 -15.55 -2.99c-5.61,4 -9.29,6.01 -10.97,6.01 -1.33,0 -4.56,-1.01 -9.51,-3.02l-0.99 0 -14.97 2.01c-4.69,0.68 -8.47,1.34 -11.54,2.01l-2.99 0c-10.97,0 -19.43,-0.99 -25.5,-3l-2.95 0c-3.67,0 -6.67,1.22 -8.96,3.79 -2.4,2.45 -4.56,3.72 -6.57,3.72 -1.33,0 -2.95,-2.16 -4.95,-6.52 -4.4,3.35 -7.51,5.46 -9.52,6.52l-9.03 -3.5c-1.33,2.66 -11.47,5.46 -30.45,8.46l-23.99 5.02 -4 -1.01c-7.69,2.74 -13.97,4.52 -19.04,5.51 -4.95,1 -9.42,2.4 -13.21,4.29 -3.83,1.78 -7.95,3 -12.29,3.68 -4.29,0.66 -10.64,2.33 -18.99,5.07l-7.97 -2.01c-6.39,3.61 -15.53,7.95 -27.55,12.97 -11.91,5.01 -19.43,9.01 -22.44,11.96 -3.06,3.06 -5.84,4.45 -8.5,4.45 -0.68,0 -2.69,-0.27 -6.02,-0.94l-0.95 0c-3.06,0 -7.97,3.4 -14.75,10.25 -6.85,6.85 -12.75,11.74 -17.77,14.73 -5.01,3.02 -9.45,7.75 -13.24,14.27 -3.86,6.45 -12.58,11.23 -26.27,14.24 -0.68,0.66 -1.34,1.67 -2.01,3l0 7.97c-5.35,3 -10.19,8.85 -14.47,17.54l-3.02 4.95 -0.95 9.47c0,10.02 -1.38,15.36 -4.05,16.03 -2.62,0.66 -5.41,2.11 -8.25,4.28 -2.84,2.17 -5.56,3.23 -8.17,3.23 -5.75,0 -11.08,-5.07 -16.09,-15.04 -4.96,-10.02 -7.4,-15.97 -7.4,-17.98 0,-19.64 6.45,-34.13 19.38,-43.47l37.02 -27c12.35,-8.96 22.82,-13.47 31.56,-13.47 2.66,-1.28 5.46,-4.51 8.46,-9.47 3.01,-5.07 9.8,-8.68 20.43,-11.01l8.02 2.99c0.66,0 1.67,-1.33 3,-4 1.34,-2.67 3.46,-4.84 6.29,-6.5 2.84,-1.67 5.29,-3.86 7.25,-6.52l12.97 -8.46c0.66,0 1.33,-0.35 2.01,-1.01l7.51 2c0.66,0 1.61,-0.33 3,-0.99 1.29,-0.68 3.62,-1.01 7.02,-1.01 1.28,0 2.29,-1.67 2.89,-5.01 1.4,-1.63 3.23,-2.68 5.57,-3.01z"/>
      <path class="fil0" d="M5697.63 2200.52l7.51 -2.01 2.95 -6.52c16.32,-9.68 28.01,-18.8 34.97,-27.44 0.72,-1.33 2.16,-2.68 4.56,-4 2.29,-1.34 4.79,-3.67 7.46,-7.02 12.35,-12.3 27.05,-18.48 43.98,-18.48 20.04,0 30.68,12.14 31.95,36.47l3.07 7.51c2.66,4.62 6.34,14.14 11.23,28.45 4.84,14.36 7.24,23.22 7.24,26.55 0,8.96 -2.89,17.98 -8.46,26.95 -4.68,2.34 -15.81,14.87 -33.51,37.47l-5.01 3.5c-2.68,6.01 -6.19,12.02 -10.52,18.04 -6.63,2.29 -10.02,4.79 -10.02,7.46l0 8.96c0,0.72 -0.66,2.05 -2.17,4 -1.5,2.01 -3.61,5.85 -6.28,11.52l-3.96 6.01c-1.38,1.34 -2.66,4.07 -4.05,8.23 -1.29,4.12 -3.17,7.91 -5.68,11.19 -2.55,3.41 -3.79,6.01 -3.79,8.02 0,5.02 6.57,7.52 19.49,7.52 0.66,0 3.17,-1 7.51,-3.01l7.01 2.01c0.68,0 2.35,-1.11 5.02,-3.23 2.67,-2.17 6.74,-3.9 12.18,-5.3 5.52,-1.28 10.37,-3.28 14.53,-6.01 4.12,-2.6 9.14,-4.96 14.97,-6.96 5.8,-2 11.41,-5.22 16.71,-9.73 5.33,-4.51 10.62,-7.73 15.79,-9.73 5.07,-2.01 9.91,-5.07 14.48,-9.24 4.5,-4.17 9.52,-8.07 15.25,-11.75 5.63,-3.67 14.71,-11.69 26.95,-23.99 8.01,-6.34 13.46,-9.8 16.47,-10.51 0.66,0 3.61,-4.4 8.74,-13.26 5.17,-8.79 11.13,-13.25 17.75,-13.25 7.02,0 10.53,3.39 10.53,10.02 0,3.68 -1.67,7.18 -5.07,10.48l0 3 1.05 8.01c0.73,1.01 0.95,2.51 0.95,4.52 0,1.33 -1.23,3.32 -3.67,5.94 -2.51,2.69 -4.29,6.13 -5.29,10.31 -1,4.17 -4.18,6.9 -9.51,8.17 -1.96,7.41 -4.58,11.53 -7.69,12.59 -3.23,0.95 -7.64,4.28 -13.26,9.96 -5.68,5.63 -13.7,12.3 -23.99,19.99 -10.35,7.62 -17.42,13.57 -21.21,17.71 -3.85,4.23 -6.47,6.28 -7.79,6.28 -0.61,0 -2.01,-0.66 -4.01,-2.01 -2,-1.33 -3.27,-2 -3.95,-2 -2.01,0 -3.39,2.33 -3.95,6.96l-2.06 5.07c-4.34,2.67 -6.85,4 -7.45,4l-3.01 -1.05 -2.01 0c-4.05,0 -6.06,1.5 -6.06,4.51l3.06 5 0 1.01c0,4.68 -2.68,6.96 -8.01,6.96 -3.68,0 -14.32,6.17 -31.95,18.54l-14.49 3 -11.96 6.45c-4.07,-2.27 -6.57,-3.51 -7.51,-3.51l-8.08 2.51 -14.42 0.99c-0.33,0 -6.46,-3.33 -18.31,-9.96 -11.76,-6.67 -18.83,-13.37 -21.16,-19.99 -2.34,-6.67 -5.34,-13.41 -8.96,-20.26 -3.73,-6.79 -5.57,-11.52 -5.57,-14.19 0,-16.03 1.34,-27.46 4,-34.29 2.69,-6.85 4.29,-11.86 5.02,-15.21 0.66,-3.39 2.62,-6.94 5.8,-10.79 3.11,-3.79 5.68,-10.07 7.69,-18.7 9.68,-19.31 16.3,-31.18 19.97,-35.52 3.68,-4.29 6.57,-9.63 8.52,-15.97l6.52 -8.96c0.66,-0.68 1.61,-3.3 2.95,-7.75 1.33,-4.56 3.06,-7.11 5.07,-7.79 2.67,-4.61 3.95,-7.62 3.95,-8.96 0,-9.68 -4.34,-14.52 -12.98,-14.52 -1.67,0 -3.5,1.78 -5.51,5.29 -1.96,3.44 -6.57,6.85 -13.75,10.17 -7.2,3.41 -11.58,5.9 -13.25,7.53 -1.72,1.66 -5.24,3.72 -10.75,6.28 -5.51,2.45 -10.24,6.4 -14.31,11.69l-8.46 4c-2.67,6.34 -5,9.85 -7.01,10.53 -1.96,0.61 -8.08,2.33 -18.48,5 -0.68,0.28 -2.29,2.34 -4.95,5.97 -2.74,3.67 -6.52,5.51 -11.54,5.51 -3.94,3.96 -7.95,8.68 -11.96,13.98 -1.34,0 -4.85,1.39 -10.53,4l-10.02 2.5c-2.67,2.01 -5.57,5.17 -8.75,9.47 -3.17,4.34 -9.07,6.57 -17.7,6.57 -5,0 -7.51,-4.01 -7.51,-12.02 0,-16.3 5.68,-29.28 17.2,-39.03 11.52,-9.56 19.93,-14.76 25.22,-15.46 5.35,-0.62 8.7,-2.62 10.02,-6.01 1.34,-3.24 4.58,-6.02 9.8,-8.19 5.18,-2.18 11.14,-7.02 17.99,-14.53 6.78,-7.45 14.19,-12.53 22.2,-15.25l6.01 -6.96z"/>
      <path class="fil0" d="M6368.09 2020.1l-2.99 -19.53 0 -3.02c0,-15.64 5.35,-24.27 15.97,-25.98 2.35,-0.29 9.31,-2.45 20.98,-6.46 6.08,1.33 12.25,6.57 18.76,15.75 6.52,9.14 9.75,17.26 9.75,24.22 0,0.66 -0.5,2.23 -1.51,4.5 -0.99,2.35 -1.66,6.73 -1.94,13.25 -0.33,6.52 -3.61,12.14 -9.74,16.98 -6.24,4.85 -12.81,7.25 -19.82,7.25 -4.68,0 -10.53,-3.23 -17.71,-9.69 -7.18,-6.52 -11.03,-12.3 -11.76,-17.26zm-215.87 249.84l8.02 -7.02 2.99 0c2.29,0 5.86,-2.45 10.53,-7.45l5 -2.01c6.63,-10.02 12.42,-15.81 17.49,-17.48l8.02 -5.97c1.28,-1.33 3.23,-2.55 5.75,-3.5 2.49,-1.06 6.45,-4.28 12.02,-9.74 5.51,-5.51 9.89,-8.3 13.19,-8.3 3.39,0 6.06,0.4 8.07,1.01 2,-4 5.96,-7.91 12.02,-11.76 5.96,-3.79 10.81,-8.39 14.42,-13.75l6.57 -3.01c5.29,-2.67 10.08,-6.06 14.25,-10.18 4.18,-4.18 9.58,-6.29 16.25,-6.29 9.64,0 19.77,4.95 30.24,14.75 10.52,9.87 15.74,19.27 15.74,28.23l-8.51 38.96c-5.63,28.68 -11.97,43.69 -18.98,45l-2.01 10.5c-4.68,3.35 -6.96,6.01 -6.96,8.02l2.95 11.98c0,1.67 -1.78,4.16 -5.46,7.46 -0.61,0 -1.01,1.05 -1.01,2.99l0 20.55c0,3.61 -2.33,6.63 -6.96,8.96 0.68,0.66 1.63,1.33 2.95,2.01 2.01,-2.01 6.52,-3.01 13.54,-3.01l7.95 1 11.04 -11.03c2.27,-0.61 5.51,-2.22 9.67,-4.73 4.19,-2.5 11.25,-5.73 21.21,-9.73l65.36 -49.93c9.03,-9.03 15.82,-13.54 20.49,-13.54 4.96,0 7.46,3.23 7.46,9.53 0,7.29 -1.34,13.41 -4.18,18.26 -2.89,4.78 -5.45,10.63 -7.79,17.42 -2.35,6.85 -5.12,11.58 -8.25,14.24 -3.17,2.67 -5.73,5.62 -7.74,8.8 -1.94,3.12 -7.4,7.74 -16.25,13.7 -8.79,6.01 -16.32,12.08 -22.44,18.26 -6.23,6.19 -11.23,10.59 -15.31,13.25l-21.43 15.48 -3.02 5.01c-0.66,0.68 -3.76,2.06 -9.23,4.23 -5.51,2.17 -10.46,4.95 -14.76,8.23l-9.02 5.02c-2.01,1.33 -5.22,2.16 -9.73,2.5 -4.45,0.33 -8.35,2.27 -11.75,5.8 -3.27,3.44 -5.96,5.22 -7.97,5.22l-7.51 -1.06 -10.02 3.06c-5.57,0 -12.53,-3.45 -20.7,-10.29 -8.19,-6.85 -12.2,-14.03 -12.2,-21.71l0 -3.02 0.95 -6.96c0,-1.33 -0.95,-4.78 -3,-10.25 -1.96,-5.56 -2.95,-8.63 -2.95,-9.24l0.99 -7.01 -0.99 -3.01c0,-9.01 0.61,-14.63 2.01,-17.03 1.28,-2.29 2.34,-5.51 3,-9.73 0.61,-4.12 1.33,-7.53 2,-10.25l2.51 -12.48c1.28,-4 2.89,-6.67 4.89,-8.02 0.68,-2.66 2.06,-7.11 4.07,-13.52l1.94 -8.96 5.07 -7.01c2.69,-2.62 4.23,-6.19 4.73,-10.7 0.44,-4.52 2.22,-9.29 5.24,-14.25 2.95,-5 4.45,-7.95 4.45,-9.01 0,-4 -2.01,-6.01 -5.95,-6.01 -1.34,0 -5.52,2.71 -12.53,8.02l-9.03 -3.02c-0.6,0 -2.45,1.72 -5.44,5.02 0,1.38 -1.52,2.33 -4.47,2.99 -3,0.66 -5.9,3.18 -8.57,7.51l-3.94 0.95 -6.48 -2.95 -2 0c-3.4,0 -5.4,3.68 -6.02,10.97 -3.66,5.35 -8.5,8.85 -14.52,10.48l-11.03 3.06c-3.61,1.28 -6.28,4.34 -7.95,8.96 -1.73,4.72 -5.02,8.9 -10.02,12.74 -5.02,3.86 -8.3,5.8 -10.02,5.8 -9.36,0 -14.03,-5.18 -14.03,-15.53l4.05 -23.5 -0.99 -3z"/>
      <path class="fil0" d="M7086.35 2344.94l2.01 0 5.02 2c0.66,0 1.28,-0.33 1.94,-1.01 0,-5.68 2.73,-10.5 8.08,-14.52 1.67,-6.29 5.4,-11.13 11.3,-14.48 5.8,-3.32 15.09,-8.79 27.78,-16.47l12.46 -11.01 6.08 -2.95 4.01 -5.07c3.67,-4.29 7.13,-6.47 10.52,-6.47 4.96,0 7.45,1.84 7.45,5.52l-4.49 9.96 2.01 16.47c0,6.01 -2.07,11.36 -6.19,16.03 -4.17,4.63 -10.64,11.54 -19.32,20.5l-25.54 26.98 -13.48 6.96c-3.34,2 -6.29,4.35 -8.96,7.02l-19.53 16.47c0,4.68 -1.56,8.18 -4.51,10.46l-8.02 0 -3.95 2.01c-2.35,6.41 -9.2,12.59 -20.61,18.54l-6.96 4.96c-2.34,2.01 -4.49,3.06 -6.5,3.06l-14.03 -2 -9.53 2c-2.6,0 -6.23,-1.33 -10.75,-4 -4.49,-2.67 -9.07,-4.73 -13.75,-6.28 -4.67,-1.51 -10.57,-7.64 -17.75,-18.49 -7.18,-10.79 -11.13,-17.87 -11.8,-21.21 0,-1.33 -0.73,-3.57 -2.18,-6.74 -1.56,-3.17 -2.27,-5.07 -2.27,-5.79 0,-0.61 1.5,-4.01 4.45,-10.02l0 -0.95c0,-0.99 -0.9,-3.33 -2.74,-7.01 -1.82,-3.68 -2.73,-8.13 -2.73,-13.48 0,-2.99 -0.99,-6.85 -3.06,-11.45 2.67,-2.69 4.07,-4.69 4.07,-6.01 0,-1.34 -0.51,-3.24 -1.57,-5.75 -0.95,-2.56 -1.45,-4.45 -1.45,-5.8l3.02 -24.49 -2.01 -12.46 0.99 -11.98c0,-7.01 -3.06,-10.5 -8.96,-10.5 -2.67,0 -5.94,1.83 -9.96,5.44l-3.52 1.06c-8.96,4.29 -15.31,7.9 -18.92,10.75 -3.61,2.79 -7.47,4.23 -11.47,4.23 -1.94,2.01 -5.79,3.85 -11.41,5.52l-3.95 2.95c-1.4,1.39 -4.07,3.39 -8.02,6.01 0,0.99 -6.24,6.62 -18.65,16.75 -12.47,10.19 -23.67,19.77 -33.63,28.73 -9.96,9.01 -17.15,13.92 -21.65,14.76 -4.47,0.84 -6.74,5.12 -6.74,12.74 0,1.34 -3.02,4 -8.91,8.02 -0.71,0 -4.24,3.67 -10.51,10.97 -5.29,-4.01 -8.3,-6.02 -8.96,-6.02 -4.34,0 -7.53,5.53 -9.53,16.54 -2,4.29 -7.34,6.96 -16.03,8.02 -0.66,0.28 -1.83,2.79 -3.51,7.4l-2.01 2.01 -5 0c-0.68,0 -3.01,2.01 -7.02,5.8 -4,3.85 -7.51,6.23 -10.57,7.24 -4.29,9.01 -7.97,13.52 -10.97,13.52 -1.38,0 -3.28,-0.66 -5.79,-2 -2.51,-1.34 -5.57,-2.51 -9.25,-3.51 -3.61,-1.05 -7.73,-5.07 -12.18,-12.25 -4.51,-7.18 -6.74,-13.26 -6.74,-18.21 0,-37.02 7.07,-57.18 21.38,-60.5l1.06 -2.01 0 -4c0,-4.29 1.89,-7.42 5.73,-9.25 3.83,-1.84 7.79,-5.46 11.74,-10.96 4.07,-5.51 6.69,-8.57 8.02,-9.25l6.47 0c1.33,0 2.01,-3.5 2.01,-10.57 0,-1.94 0.88,-3.79 2.49,-5.4 1.67,-1.73 2.69,-4.12 3.07,-7.29 0.28,-3.18 2.73,-8.3 7.24,-15.48 4.45,-7.14 6.74,-11.41 6.74,-12.75l-1.06 -2.01c-8.3,7.69 -14.31,11.81 -17.98,12.47 -3.61,0.68 -8.62,5.52 -14.98,14.48l-7.95 -1.45c-14.03,10.29 -22.71,16.19 -26.05,17.42 -3.28,1.39 -7.02,5.24 -11.03,11.58 0,1.94 -1.22,3.28 -3.51,3.95 -2.4,0.68 -6.74,3.34 -13.02,8.02l-3.02 0c-8.35,0 -12.53,-6.01 -12.53,-17.98l10.48 -28.5c3,-9.03 10.07,-16.54 21.21,-22.73 11.13,-6.17 20.53,-12.14 28.21,-17.75 7.69,-5.68 15.31,-8.63 22.94,-9.03l3.51 -4.95c11.36,-4.34 18.98,-11.13 22.99,-20.54 4,-9.29 9.47,-13.98 16.42,-13.98 18.36,0 32.34,6.74 41.98,20.26 9.63,13.47 14.47,24.27 14.47,32.24l1.06 13.48c0,4.67 -1.06,11.18 -3.07,19.47 -3.95,6.01 -5.96,10.48 -5.96,13.54 0,2.6 1.67,3.95 4.95,3.95 2.07,0 4.63,-1.38 8.02,-4.23 3.35,-2.84 7.07,-5.35 11.19,-7.74 4.18,-2.29 6.57,-4.29 7.3,-6.01 3.33,-7.97 9.12,-13.47 17.47,-16.49 8.3,-2.99 13.47,-5.44 15.48,-7.51l5.02 -3.94 4.01 -7.53c8.95,-4.01 14.91,-7.63 17.91,-10.97 3.01,-3.33 6.96,-5.51 12.02,-6.57 4.96,-0.95 10.64,-3.95 16.98,-8.96l7.46 -2.01 6.96 -4c0.65,-0.61 2.66,-1.5 6.01,-2.45 3.34,-1.06 8.23,-2.78 14.69,-5.24 6.57,-2.55 10.96,-3.79 13.25,-3.79 16.98,0 30.4,6.81 40.2,20.5 9.8,13.7 14.75,24.65 14.75,32.95l-1 9.02 2 13.46 0 2.01 -4 27.5 1.01 9.52c0,15.65 -3.35,26.44 -9.96,32.46 -1.74,0.65 -2.51,2.4 -2.51,5.02l0 4.49 10.02 20.99c2.95,7.29 5.33,10.96 6.96,10.96l16.03 -4.51c4.67,-1.28 8.51,-4.78 11.52,-10.46 2.67,-1.33 7.35,-5.33 14.03,-11.96 2.01,-5.35 5.17,-8.01 9.52,-8.01z"/>
      <path class="fil0" d="M7810.64 1927.11l-2.01 0 -7.01 3.02c-11.69,0.66 -19.59,2.45 -23.71,5.22 -4.19,2.9 -6.96,4.29 -8.24,4.29l-4.07 -1.49 -5.94 0c-5.75,2.33 -9.69,3.67 -12.03,4 -2.35,0.28 -7.85,2.16 -16.76,5.46 -8.81,3.39 -13.58,5 -14.14,5 -2.4,0 -5.24,-0.99 -8.58,-3l-3 0.99c-5.29,2.67 -9.03,4.01 -11.03,4.01 -5.56,0 -8.47,-1.34 -8.47,-4.01 0,-2.01 0.29,-3.72 0.8,-5.24 0.44,-1.49 0.6,-4.44 0.44,-9 -0.17,-4.52 0.61,-8.96 2.27,-13.48 1.67,-4.49 2.51,-6.9 2.51,-7.29l-5.01 -18.92c-3.34,-15.99 -9.18,-24 -17.49,-24 -6.29,0 -14.47,5.8 -24.44,17.49 -2.99,6.34 -6.96,9.47 -12.02,9.47 -0.99,0 -2.27,1.78 -4,5.28 -1.62,3.51 -3.11,6.06 -4.5,7.74 -5.63,12.02 -11.31,20.15 -16.93,24.49 -5.73,4.35 -10.79,11.18 -15.25,20.72 -4.51,9.51 -8.08,14.29 -10.75,14.29l-8.13 -1.05c-0.61,0 -1.45,0.33 -2.46,1.05 -0.99,0.61 -3.61,1.63 -7.84,2.95 -4.18,1.34 -9.4,3.63 -15.59,6.74 -6.23,3.17 -13.35,4.79 -21.32,4.79l-1.06 0 -4.45 -2 -0.95 0 -5.07 4.95 -6.96 2.01c-4.07,-1.29 -6.52,-2.01 -7.51,-2.01 -6.69,0 -12.09,1.22 -16.27,3.51 -4.17,2.38 -6.9,3.5 -8.24,3.5l-7.95 2.01c-3.39,1.34 -9.29,2.62 -17.75,3.72 -8.52,1.24 -14.87,3.13 -18.99,5.8 -4.18,2.68 -7.97,4 -11.25,4l-6.57 -1.05 -20.5 5.52c-14.91,3.66 -24.6,6.78 -28.94,9.23 -4.34,2.51 -7.51,3.72 -9.47,3.72l-2.01 0 -5.51 -2 -0.95 0 -20.59 8.01c-56.62,5.36 -84.9,24.56 -84.9,57.46 0,6.01 2.23,12.75 6.74,20.26 4.45,7.53 8.35,11.25 11.74,11.25l3.96 -1.01c14.03,-12.29 22.99,-19.14 27.05,-20.48l50.93 -13.97c3.28,0.66 5.29,0.99 6.02,0.99 5.02,0 12.86,-2.84 23.5,-8.52l11.45 1.01c5.36,-3.34 9.36,-5.02 12.03,-5.02l4.51 0 20.44 -6.01c10.02,-6.28 24.82,-10.29 44.48,-11.96l21.98 -2.5 7.02 1.05c1.33,0 3.18,-1.5 5.51,-4.56 2.34,-2.95 5.95,-5.96 10.97,-8.96 6.67,2.01 10.02,3.51 10.02,4.45l21.49 -10.46c1.33,1.34 2.34,2.67 2.94,4 -0.6,8.96 -4.05,18.59 -10.24,28.72 -6.13,10.2 -10.41,18.22 -12.74,24.23 -1.85,4.73 -32.42,89.96 -32.42,89.96l-9 95.98 -3.02 43.98 3.02 9.96 -1.01 19.53c0,7.3 4.35,23.83 13.03,49.51 8.63,25.66 21.87,38.45 39.57,38.45 3.35,0 7.4,-2.11 12.25,-6.52 4.85,-4.28 7.4,-8.72 7.75,-13.24 0.33,-4.45 0.99,-8.63 1.94,-12.46 1.05,-3.86 1.56,-6.74 1.56,-8.75 0,-23.67 -4.95,-41.09 -14.75,-52.28 -9.92,-11.13 -14.76,-21.37 -14.76,-30.68 0,-0.71 0.61,-1.66 2.01,-3 -2.01,-8.02 -3,-13.52 -3,-16.53l3 -22.49 -0.99 -7.97c5.33,-11.01 8.02,-20.15 8.02,-27.55l0 -2.95c-0.73,-2.99 -1.01,-4.84 -1.01,-5.51 0,-0.95 2.29,-9.52 6.96,-25.5l-2 -7.95c0,-5.02 2,-9.47 6.01,-13.47l1.5 -4.01c0,-2.66 0.51,-4.51 1.51,-5.51 1.06,-1.05 2.34,-4.56 4.01,-10.75 1.72,-6.19 4.34,-12.02 8.06,-17.49 3.61,-5.44 7.3,-10.57 10.97,-15.24l8.96 -13.54c2.73,-2.01 5.57,-4.68 8.57,-8.17 3.01,-3.51 6.34,-5.64 9.97,-6.3l2.06 -2.94c2.29,-6.68 7.13,-11.02 14.48,-13.03l22.49 -40.97c3.33,-2.34 5.07,-3.84 5.07,-4.52 4.96,-12.02 11.81,-20.15 20.42,-24.49l25.56 -5c5.01,-1.28 8.17,-1.96 9.45,-1.96l12.03 -2.01c16.64,-5.07 25.5,-7.51 26.56,-7.51 2.29,0 5.24,-0.66 8.96,-2 3.61,-1.34 7.13,-2.01 10.41,-2.01 1.38,0 2.05,0.4 2.05,1.01 6.96,9.01 11.14,13.46 12.54,13.46 7.62,0 15.31,-4.95 22.94,-14.97l22.99 -29c2.01,-6.28 4.61,-11.96 7.78,-16.98 3.19,-5 4.73,-8.51 4.73,-10.51 0,-9.63 -5.51,-14.48 -16.47,-14.48z"/>
     </g>
     <g>
      <path class="fil1" d="M3126.46 765.61c0,-196.51 66.91,-365.84 200.69,-507.97 133.77,-142.12 296.09,-213.2 487.03,-213.2 151.87,0 311.46,20.26 478.7,60.67 6.94,1.34 16.69,54 29.27,157.77 12.53,103.81 18.83,165.5 18.83,184.99 0,11.18 -12.59,16.76 -37.63,16.76 -29.29,0 -50.89,-3.46 -64.81,-10.48 -7.01,-26.38 -18.15,-53.6 -33.5,-81.55 -15.31,-27.83 -38.3,-59.22 -68.92,-94.01 -30.73,-34.8 -73.2,-63.03 -127.53,-84.68 -54.33,-21.61 -115.69,-32.4 -183.94,-32.4 -250.84,0 -376.26,185.37 -376.26,556.07 0,104.49 13.59,201.68 40.75,291.58 27.17,89.85 75.27,167.57 144.24,233.05 68.97,65.57 154.98,98.24 258.13,98.24 61.35,0 105.88,-11.13 133.83,-33.39 15.31,-12.59 22.99,-33.47 22.99,-62.74l0 -131.65 0 -14.65c0,-71.09 -4.89,-124.71 -14.64,-161 -11.19,-37.62 -57.11,-56.45 -138,-56.45 -5.57,0 -8.7,-11.47 -9.4,-34.45 -0.68,-22.99 1.78,-37.3 7.34,-42.87 25.06,1.38 58.18,3.17 99.25,5.24 41.14,2.05 78.77,3.83 112.91,5.22 34.18,1.4 67.24,2.06 99.25,2.06 20.93,0 115.01,-4.18 282.24,-12.53 4.23,12.53 6.28,26.49 6.28,41.8 0,25.06 -2.84,37.64 -8.34,37.64 -32.07,0 -69.02,10.46 -110.84,31.4 -22.26,11.13 -33.39,66.14 -33.39,165.11l0 121.26c0,25.11 2.05,43.87 6.23,56.38 4.16,12.59 6.28,20.28 6.28,23.05 0,23.72 -14.64,43.15 -43.92,58.52 -51.55,26.43 -91.63,45.7 -120.2,57.44 -28.55,11.91 -79.44,25.11 -152.57,39.75 -73.16,14.58 -155.04,21.93 -245.61,21.93 -183.94,0 -340.74,-68.64 -470.34,-205.91 -129.6,-137.18 -194.39,-299.22 -194.39,-486z"/>
      <path class="fil1" d="M4826.81 508.93c19.09,0 85.85,-2.89 200.35,-8.63 2.84,8.63 4.29,17.2 4.29,25.79 0,18.15 -1.89,27.16 -5.72,27.16 -8.59,0 -25.73,4.11 -51.51,12.2 -25.77,8.13 -39.57,15.48 -41.51,22.15 -6.69,25.77 -9.97,63.96 -9.97,114.52l0 542.37c0,46.7 3.79,81.05 11.41,102.98 4.8,15.31 37.19,22.93 97.31,22.93l37.19 0c59.18,0 112.56,-12.4 160.27,-37.19 16.25,-8.63 34.62,-24.82 55.1,-48.64 20.55,-23.89 36.53,-50.61 47.94,-80.17 1.9,-5.75 8.63,-8.58 20.04,-8.58 22.93,0 37.24,2.84 42.97,8.58 -46.76,131.65 -72.53,213.71 -77.32,246.15 -54.33,0 -698.3,2.84 -698.3,2.84 -3.85,-3.84 -5.75,-11.91 -5.75,-24.38 0,-19.03 1.9,-28.56 5.75,-28.56 11.41,0 29.33,-3.32 53.67,-10.02 24.32,-6.67 37.91,-13.8 40.74,-21.48 5.73,-21.88 8.63,-63.91 8.63,-125.88l0 -546.65c0,-58.23 -3.85,-93.97 -11.47,-107.39 -4.78,-7.64 -18.15,-15.48 -40.09,-23.6 -21.93,-8.08 -38.14,-12.2 -48.64,-12.2 -3.86,0 -5.75,-8.07 -5.75,-24.28 0,-17.2 0.95,-26.71 2.9,-28.67 131.65,5.75 200.8,8.63 207.48,8.63z"/>
      <path class="fil1" d="M5905.8 564.75c-50.56,0 -92.59,18.41 -125.92,55.1 -33.4,36.75 -56.51,81.79 -69.42,135.22 -12.86,53.44 -19.26,114.52 -19.26,183.16 0,48.7 4.51,96.64 13.58,143.83 9.01,47.27 22.88,93.53 41.47,138.85 18.59,45.3 45.54,82.06 80.82,110.16 35.3,28.16 76.33,42.19 123.09,42.19 71.59,0 125.2,-36.23 161,-108.77 35.78,-72.48 53.65,-161.67 53.65,-267.55 0,-52.48 -4.05,-102.32 -12.14,-149.51 -8.13,-47.26 -21.26,-93.03 -39.36,-137.44 -18.14,-44.37 -44.85,-79.61 -80.16,-105.89 -35.29,-26.23 -77.76,-39.36 -127.36,-39.36zm-302.67 747.01c-90.12,-94.48 -135.22,-208.42 -135.22,-342.03 0,-133.59 45.1,-247.78 135.22,-342.69 90.18,-94.92 198.24,-142.4 324.15,-142.4 125.92,0 234.21,47.48 324.84,142.4 90.62,94.92 135.94,209.1 135.94,342.69 0,133.61 -45.32,247.55 -135.94,342.03 -90.63,94.41 -198.91,141.63 -324.84,141.63 -125.91,0 -233.97,-47.22 -324.15,-141.63z"/>
      <path class="fil1" d="M7039.17 1195.82c0,-132.6 -58.68,-198.91 -176.03,-198.91 -31.51,0 -55.78,2.4 -72.98,7.14 -10.46,3.83 -15.7,8.13 -15.7,12.9l0 321.93c0,8.63 3.28,15.32 9.97,20.1 9.56,6.63 45.3,9.96 107.38,9.96 98.25,0 147.36,-57.72 147.36,-173.12zm-108.79 -291.93c14.38,-7.63 25.28,-14.81 32.97,-21.43 7.62,-6.67 15.97,-20.81 25,-42.24 9.07,-21.49 13.63,-48.88 13.63,-82.27 0,-118.31 -43.92,-177.48 -131.65,-177.48 -42.02,0 -69.64,1.94 -83,5.73 -8.63,1.89 -12.86,7.64 -12.86,17.15l0 130.2 0 163.17c0,13.41 24.77,20.04 74.37,20.04 37.24,0 64.41,-4.28 81.55,-12.86zm-356.27 339.19l0 -540.98c0,-52.44 -2.9,-89.63 -8.58,-111.61 -2.89,-7.62 -16.98,-16.2 -42.24,-25.72 -25.28,-9.52 -43.15,-14.36 -53.67,-14.36 -3.79,0 -5.73,-8.57 -5.73,-25.72 0,-15.25 1.43,-24.38 4.28,-27.22 76.33,4.84 146.47,7.18 210.38,7.18 31.51,0 103.49,-0.95 216.11,-2.84 35.29,0 71.03,4.51 107.32,13.59 36.25,9 71.31,23.1 105.16,42.19 33.91,19.09 61.3,45.76 82.35,80.16 20.92,34.29 31.45,73.87 31.45,118.74 0,49.66 -14.32,90.63 -42.92,123.09 -28.61,32.44 -53.93,52.94 -75.87,61.51 -7.64,2.89 -10.02,5.73 -7.18,8.63 33.45,5.73 68.25,29.27 104.48,70.81 36.25,41.46 54.4,94.69 54.4,159.55 0,82.06 -33.4,147.69 -100.16,196.78 -66.79,49.16 -155.64,78.44 -264.36,76.55l-418.23 0c-3.85,-3.84 -5.75,-11.91 -5.75,-24.38 0,-19.04 1.9,-28.56 5.75,-28.56 11.41,0 29.33,-3.34 53.67,-10.02 24.32,-6.67 37.91,-13.81 40.79,-21.5 5.68,-21.86 8.58,-63.89 8.58,-125.86z"/>
      <path class="fil1" d="M7663.13 1052.79c28.6,2.9 63.91,4.29 105.88,4.29 38.13,0 72.04,-0.9 101.6,-2.9l4.29 -7.11 -102.99 -256.14 -111.68 256.14c0,3.83 0.95,5.73 2.91,5.73zm234.7 347.76c20.98,0 42.42,-4.56 64.41,-13.64 21.93,-9.07 32.9,-21.21 32.9,-36.46 0,-1.9 -11.91,-33.85 -35.8,-95.86l-42.92 -104.43c-3.84,-3.84 -7.18,-5.73 -10.02,-5.73 -18.15,-1.01 -63.91,-1.45 -137.38,-1.45 -62.96,0 -111.17,0.44 -144.51,1.45 -3.85,0 -7.19,2.34 -10.08,7.11l-47.21 108.73c-19.04,42.98 -28.55,72.03 -28.55,87.3 0,15.31 8.51,27.22 25.72,35.78 17.2,8.57 32.22,13.64 45.09,15.04 12.86,1.43 24.04,2.16 33.62,2.16 2.84,0.95 4.28,8.51 4.28,22.88 0,14.32 -0.93,24.33 -2.82,30.06 -12.42,-0.99 -312.48,-0.99 -330.57,0 -3.85,-3.83 -5.75,-11.01 -5.75,-21.49 0,-19.98 0.95,-30.06 2.84,-30.06 11.47,0 30.57,-4.95 57.28,-15.02 26.66,-9.97 43.36,-20.21 50.05,-30.74 7.62,-11.46 15.46,-25.55 23.6,-42.24 8.07,-16.65 14.52,-30.24 19.32,-40.81l7.18 -17.09 316.25 -726.97c10.52,-24.84 28.12,-37.24 52.94,-37.24 14.31,0 25.77,6.23 34.36,18.59l293.36 725.58c18.1,43.87 33.84,82.94 47.22,117.29 5.72,15.31 21.47,27 47.26,35.08 25.7,8.13 45.25,12.19 58.6,12.19 3.86,0 5.75,8.13 5.75,24.33 0,16.19 -0.95,25.73 -2.84,28.61l-423.58 0c-5.4,0 -5.73,-13.59 -5.73,-29.33 0,-15.75 1.89,-23.6 5.73,-23.6z"/>
      <path class="fil1" d="M8730.76 46.18c28.39,0 127.91,-4.27 298.5,-12.79 4.28,12.79 6.45,25.54 6.45,38.36 0,27.05 -2.9,40.52 -8.56,40.52 -12.82,0 -38.36,6.06 -76.78,18.15 -38.35,12.09 -59.02,23.17 -61.85,33.01 -9.96,38.41 -14.92,95.26 -14.92,170.63l0 808.08c0,69.64 5.68,120.86 17.09,153.53 7.07,22.77 55.45,34.13 145.02,34.13l55.39 0c88.11,0 167.72,-18.43 238.81,-55.45 24.16,-12.74 51.5,-36.95 82.12,-72.47 30.5,-35.46 54.33,-75.32 71.42,-119.41 2.84,-8.52 12.8,-12.8 29.84,-12.8 34.12,0 55.43,4.28 63.96,12.8 -69.64,196.18 -108.05,318.47 -115.11,366.74 -81,0 -1040.56,4.29 -1040.56,4.29 -5.67,-5.68 -8.51,-17.82 -8.51,-36.29 0,-28.41 2.84,-42.66 8.51,-42.66 17.04,0 43.71,-4.96 79.93,-14.91 36.3,-9.87 56.51,-20.55 60.81,-31.96 8.51,-32.68 12.79,-95.2 12.79,-187.65l0 -814.48c0,-86.73 -5.68,-140.02 -17.09,-159.93 -7.07,-11.43 -27,-23.1 -59.68,-35.19 -32.72,-12.09 -56.89,-18.15 -72.54,-18.15 -5.67,0 -8.47,-12.02 -8.47,-36.25 0,-25.54 1.39,-39.73 4.24,-42.63 196.18,8.52 299.22,12.79 309.19,12.79z"/>
     </g>
    </g>
   </g>
   <!-- <path class="fil1" d="M702.01 3215.46l-74.61 0 0 -331.55 -135.85 0 0 331.55 -74.22 0 0 -387.96 284.68 0 0 387.96zm67.48 -198.5c0,-57.68 13.88,-104.91 41.77,-141.71 27.88,-36.8 65.95,-55.13 114.2,-55.13 48.64,0 86.97,18.33 114.85,55.13 27.88,36.8 41.76,84.03 41.76,141.71l0 9.81c0,57.67 -13.88,104.78 -41.76,141.32 -27.87,36.54 -65.95,54.88 -114.08,54.88 -48.77,0 -87.09,-18.34 -114.97,-54.88 -27.89,-36.54 -41.77,-83.65 -41.77,-141.32l0 -9.81zm74.61 9.81c0,41.24 6.75,74.98 20.37,101.22 13.51,26.22 34.13,39.34 61.76,39.34 26.99,0 47.48,-13.12 61.11,-39.47 13.62,-26.36 20.51,-60.09 20.51,-101.08l0 -9.81c0,-40.49 -6.89,-74.1 -20.64,-100.71 -13.87,-26.61 -34.51,-39.85 -61.75,-39.85 -27.11,0 -47.48,13.37 -60.99,40.1 -13.62,26.73 -20.37,60.22 -20.37,100.45l0 9.81zm591.29 -199.27l0 387.96 -74.6 0 0 -331.55 -86.96 0 0 111.8c0,75.63 -10.2,131.14 -30.44,166.66 -20.24,35.39 -53.47,53.1 -99.69,53.1l-16.04 0 0 -58.57 11.46 -0.39c22.4,0 38.07,-11.96 47.11,-35.77 8.91,-23.94 13.37,-65.57 13.37,-125.03l0 -168.2 235.8 0zm283.55 0l74.61 0 0 387.96 -74.61 0 0 -263.3 -2.29 -0.39 -133.56 263.69 -74.22 0 0 -387.96 74.22 0 0 263.69 2.3 0.38 133.55 -264.07zm343.52 56.4l-112.68 0 0 331.55 -74.22 0 0 -387.96 186.91 0 0 56.4zm353.57 149.48c0,57.42 -11.59,103.39 -34.88,137.9 -23.17,34.37 -55.65,51.69 -97.15,51.69 -19.61,0 -36.93,-3.95 -52.08,-11.59 -15.02,-7.76 -27.89,-19.09 -38.58,-33.99l0 187.3 -74.24 0 0 -537.18 63.41 0 6.75 46.6c10.44,-17.31 23.56,-30.69 39.22,-40.1 15.66,-9.29 33.88,-13.88 54.75,-13.88 41.77,0 74.35,18.72 97.78,56.28 23.31,37.56 35.01,87.33 35.01,149.6l0 7.39zm-74.6 -7.39c0,-43.8 -6.5,-79.45 -19.61,-107.07 -12.99,-27.63 -32.6,-41.38 -58.7,-41.38 -16.68,0 -30.81,4.45 -42.27,13.37 -11.58,8.91 -20.75,21.26 -27.5,36.93l0 193.26c6.75,14.64 15.92,25.98 27.5,34.13 11.46,8.01 25.84,12.09 43.03,12.09 26.1,0 45.59,-12.23 58.31,-36.54 12.87,-24.32 19.24,-56.79 19.24,-97.4l0 -7.39zm343.26 189.46c-3.05,-9.92 -5.35,-19.61 -7.01,-29.16 -1.52,-9.43 -2.68,-18.84 -3.05,-28.26 -10.06,18.84 -23.17,34.37 -39.61,46.6 -16.42,12.23 -35.39,18.34 -57.03,18.34 -35.14,0 -62.01,-10.31 -80.97,-30.82 -18.85,-20.5 -28.4,-48.51 -28.4,-84.15 0,-36.8 12.85,-65.57 38.7,-86.45 25.72,-21 62.01,-31.46 109.12,-31.46l57.81 0 0 -40.24c0,-23.68 -5.09,-42.01 -15.29,-55.25 -10.3,-13.12 -25.33,-19.73 -45.19,-19.73 -17.96,0 -31.83,5.73 -42.01,17.19 -10.07,11.46 -15.02,26.22 -15.02,44.43l-71.3 0.26 -0.76 -2.16c-1.4,-30.05 10.31,-56.66 35.27,-79.83 24.95,-23.17 57.93,-34.62 98.67,-34.62 39.35,0 70.79,11.2 94.6,33.74 23.69,22.41 35.65,54.75 35.65,96.77l0 180.16c0,14.64 0.89,29.04 2.92,43.03 2.05,14.14 5.1,28.02 9.29,41.64l-76.39 0zm-91.03 -48.9c19.35,0 36.41,-5.85 51.05,-17.69 14.64,-11.84 24.57,-26.22 29.54,-43.04l0 -70.14 -58.95 0c-23.17,0 -41.01,6.99 -53.61,20.87 -12.48,13.88 -18.84,31.07 -18.84,51.45 0,17.69 4.45,31.83 13.24,42.52 8.9,10.7 21.39,16.04 37.57,16.04zm237.2 -140.56c0,-62.27 11.59,-112.04 34.88,-149.6 23.17,-37.56 55.89,-56.28 97.92,-56.28 18.07,0 34.25,3.44 48.39,10.57 14.25,7.12 26.73,17.19 37.68,30.42l0 -205.24 74.61 0 0 208.55c10.69,-14.39 23.55,-25.47 38.45,-32.97 14.9,-7.65 31.96,-11.33 51.06,-11.33 42.01,0 74.73,18.72 97.9,56.28 23.31,37.56 34.9,87.33 34.9,149.6l0 7.39c0,57.42 -11.59,103.39 -34.9,137.9 -23.17,34.37 -55.63,51.69 -97.14,51.69 -19.35,0 -36.55,-3.57 -51.57,-10.7 -15.15,-7.13 -28.02,-17.44 -38.7,-31.19l0 183.6 -74.61 0 0 -181.31c-10.7,13.24 -23.17,23.05 -37.68,29.67 -14.39,6.62 -30.83,9.93 -49.15,9.93 -41.76,0 -74.24,-17.32 -97.41,-51.69 -23.17,-34.51 -34.62,-80.47 -34.62,-137.9l0 -7.39zm441.18 0c0,-44.06 -6.49,-79.96 -19.48,-107.84 -13.12,-27.87 -32.86,-41.75 -59.21,-41.75 -16.16,0 -29.91,4.58 -41.38,13.62 -11.46,9.04 -20.61,21.26 -27.62,36.66l0 195.18c6.75,14.39 15.91,25.59 27.5,33.49 11.46,8.03 25.59,11.97 42.27,11.97 26.36,0 45.97,-12.09 58.82,-36.42 12.74,-24.18 19.11,-56.65 19.11,-97.52l0 -7.39zm-366.95 7.39c0,40.87 6.11,73.34 18.46,97.52 12.21,24.33 31.56,36.42 57.92,36.42 15.67,0 29.16,-3.82 40.49,-11.58 11.33,-7.64 20.63,-18.6 27.76,-32.85l0 -199.52c-7.13,-14.39 -16.42,-25.85 -27.5,-34.26 -11.2,-8.52 -24.57,-12.72 -39.98,-12.72 -26.36,0 -45.83,13.88 -58.31,41.63 -12.6,27.63 -18.85,63.66 -18.85,107.97l0 7.39zm716.95 -205.88l74.6 0 0 387.96 -74.6 0 0 -263.3 -2.29 -0.39 -133.57 263.69 -74.22 0 0 -387.96 74.22 0 0 263.69 2.3 0.38 133.56 -264.07zm435.7 387.96l-74.61 0 0 -149.61 -56.02 0c-51.19,0 -89.51,-10.69 -115.1,-32.21 -25.46,-21.52 -38.2,-58.94 -38.2,-112.17l0 -93.96 74.61 0 0 93.96c0,35.39 5.85,58.96 17.7,70.8 11.83,11.71 32.21,17.69 60.99,17.69l56.02 0 0 -182.45 74.61 0 0 387.96zm229.05 7.51c-50.81,0 -90.4,-17.69 -118.92,-52.96 -28.4,-35.4 -42.66,-81.48 -42.66,-138.4l0 -16.43c0,-57.03 14.13,-103.76 42.4,-140.3 28.13,-36.54 65.06,-54.75 110.51,-54.75 43.3,0 76.78,14.9 100.33,44.95 23.68,29.91 35.53,71.29 35.53,124l0 42.53 -214.54 0c0,40.49 7.52,73.22 22.4,98.3 14.9,24.95 38.21,37.43 69.79,37.43 19.61,0 36.41,-2.8 50.53,-8.41 14.01,-5.6 27.89,-13.37 41.51,-23.29l18.71 47.36c-10.95,10.44 -26.48,19.73 -46.46,27.76 -20,8.15 -43.04,12.22 -69.14,12.22zm-8.66 -346.57c-21.89,0 -39.35,9.54 -52.32,28.65 -13.11,19.22 -21.39,44.56 -24.82,76.13l139.41 0 0 -8.9c0,-29.41 -5.1,-52.71 -15.28,-69.9 -10.19,-17.32 -25.84,-25.97 -46.99,-25.97zm340.59 290.93c18.21,0 33.61,-6.87 46.22,-20.75 12.73,-13.75 19.09,-32.34 19.09,-55.77l67.1 0 0.76 2.3c1.02,36.02 -11.72,66.72 -38.2,91.91 -26.49,25.22 -58.19,37.95 -94.98,37.95 -48.25,0 -85.81,-18.34 -112.82,-55.14 -26.99,-36.67 -40.48,-83.01 -40.48,-139.29l0 -13.75c0,-56.02 13.49,-102.37 40.48,-139.3 27,-36.91 64.43,-55.38 112.43,-55.38 39.86,0 72.32,13.11 97.41,39.47 25.08,26.36 37.3,60.23 36.54,101.48l-1.14 2.29 -67.1 0c0,-25.72 -6.12,-46.6 -18.34,-62.78 -12.22,-16.16 -28.02,-24.18 -47.37,-24.18 -26.85,0 -46.6,13.23 -59.33,39.85 -12.6,26.61 -18.96,59.46 -18.96,98.55l0 13.75c0,39.86 6.36,72.95 18.96,99.31 12.74,26.36 32.6,39.47 59.72,39.47zm316.65 -115.23l-33.99 0 0 163.36 -74.24 0 0 -387.96 74.24 0 0 161.96 29.15 0 100.71 -161.96 92.82 0 -130.12 181.69 138.78 206.27 -95.5 0 -101.86 -163.36zm458.1 -224.6l74.61 0 0 387.96 -74.61 0 0 -263.3 -2.29 -0.39 -133.56 263.69 -74.22 0 0 -387.96 74.22 0 0 263.69 2.3 0.38 133.55 -264.07zm366.69 0l74.61 0 0 387.96 -74.61 0 0 -263.3 -2.28 -0.39 -133.57 263.69 -74.22 0 0 -387.96 74.22 0 0 263.69 2.3 0.38 133.55 -264.07zm35.15 -161.06l0.76 2.3c1.02,28.13 -8.02,51.05 -26.87,68.88 -18.84,17.69 -44.43,26.61 -76.52,26.61 -32.21,0 -57.92,-8.92 -77.03,-26.61 -18.96,-17.83 -27.87,-40.75 -26.6,-68.88l0.76 -2.3 55.89 0c0,15.92 3.82,28.91 11.46,38.71 7.51,9.81 19.48,14.63 35.52,14.63 15.79,0 27.38,-4.96 35.15,-14.89 7.64,-9.93 11.59,-22.79 11.59,-38.45l55.89 0zm563.53 385.66l-33.99 0 0 163.36 -74.24 0 0 -387.96 74.24 0 0 161.96 29.15 0 100.72 -161.96 92.82 0 -130.13 181.69 138.78 206.27 -95.5 0 -101.86 -163.36zm233.5 -35.14c0,-57.68 13.88,-104.91 41.77,-141.71 27.88,-36.8 65.95,-55.13 114.2,-55.13 48.64,0 86.97,18.33 114.85,55.13 27.88,36.8 41.76,84.03 41.76,141.71l0 9.81c0,57.67 -13.88,104.78 -41.76,141.32 -27.87,36.54 -65.95,54.88 -114.08,54.88 -48.77,0 -87.09,-18.34 -114.97,-54.88 -27.89,-36.54 -41.77,-83.65 -41.77,-141.32l0 -9.81zm74.61 9.81c0,41.24 6.75,74.98 20.38,101.22 13.5,26.22 34.12,39.34 61.75,39.34 26.99,0 47.48,-13.12 61.11,-39.47 13.62,-26.36 20.51,-60.09 20.51,-101.08l0 -9.81c0,-40.49 -6.89,-74.1 -20.63,-100.71 -13.88,-26.61 -34.51,-39.85 -61.76,-39.85 -27.11,0 -47.48,13.37 -60.98,40.1 -13.63,26.73 -20.38,60.22 -20.38,100.45l0 9.81zm506.24 99.18l2.16 0 101.86 -298.45 92.94 0 0 387.96 -74.22 0 0 -255.92 -2.3 -0.37 -93.57 256.29 -50.81 0 -93.96 -258.08 -2.3 0.38 0 257.7 -74.23 0 0 -387.96 93.71 0 100.71 298.45zm572.18 89.51l-74.61 0 0 -331.55 -135.86 0 0 331.55 -74.22 0 0 -387.96 284.69 0 0 387.96zm366.69 -387.96l0 387.96 -74.61 0 0 -331.55 -86.96 0 0 111.8c0,75.63 -10.2,131.14 -30.44,166.66 -20.24,35.39 -53.47,53.1 -99.69,53.1l-16.04 0 0 -58.57 11.46 -0.39c22.41,0 38.07,-11.96 47.11,-35.77 8.91,-23.94 13.37,-65.57 13.37,-125.03l0 -168.2 235.81 0zm220.53 395.47c-50.81,0 -90.4,-17.69 -118.93,-52.96 -28.39,-35.4 -42.66,-81.48 -42.66,-138.4l0 -16.43c0,-57.03 14.14,-103.76 42.41,-140.3 28.13,-36.54 65.06,-54.75 110.51,-54.75 43.29,0 76.78,14.9 100.32,44.95 23.69,29.91 35.54,71.29 35.54,124l0 42.53 -214.54 0c0,40.49 7.51,73.22 22.4,98.3 14.9,24.95 38.21,37.43 69.79,37.43 19.6,0 36.41,-2.8 50.53,-8.41 14.01,-5.6 27.89,-13.37 41.51,-23.29l18.71 47.36c-10.95,10.44 -26.48,19.73 -46.47,27.76 -19.99,8.15 -43.03,12.22 -69.13,12.22zm-8.66 -346.57c-21.9,0 -39.35,9.54 -52.32,28.65 -13.12,19.22 -21.4,44.56 -24.82,76.13l139.41 0 0 -8.9c0,-29.41 -5.1,-52.71 -15.28,-69.9 -10.19,-17.32 -25.84,-25.97 -46.99,-25.97zm314.49 175.7l-34 0 0 163.36 -74.23 0 0 -387.96 74.23 0 0 161.96 29.16 0 100.71 -161.96 92.82 0 -130.12 181.69 138.78 206.27 -95.5 0 -101.86 -163.36zm387.18 115.23c18.21,0 33.61,-6.87 46.22,-20.75 12.72,-13.75 19.09,-32.34 19.09,-55.77l67.09 0 0.77 2.3c1.02,36.02 -11.72,66.72 -38.2,91.91 -26.49,25.22 -58.19,37.95 -94.98,37.95 -48.25,0 -85.81,-18.34 -112.82,-55.14 -26.99,-36.67 -40.48,-83.01 -40.48,-139.29l0 -13.75c0,-56.02 13.49,-102.37 40.48,-139.3 27,-36.91 64.43,-55.38 112.43,-55.38 39.86,0 72.32,13.11 97.4,39.47 25.08,26.36 37.31,60.23 36.54,101.48l-1.14 2.29 -67.09 0c0,-25.72 -6.12,-46.6 -18.34,-62.78 -12.23,-16.16 -28.02,-24.18 -47.37,-24.18 -26.85,0 -46.6,13.23 -59.33,39.85 -12.6,26.61 -18.96,59.46 -18.96,98.55l0 13.75c0,39.86 6.36,72.95 18.96,99.31 12.74,26.36 32.6,39.47 59.72,39.47z"/> -->
  </g>
 </g>
</svg>