<?xml version="1.0" encoding="UTF-8"?>
<!DOCTYPE svg PUBLIC "-//W3C//DTD SVG 1.1//EN" "http://www.w3.org/Graphics/SVG/1.1/DTD/svg11.dtd">
<!-- Creator: CorelDRAW 2018 (64-Bit) -->
<svg xmlns="http://www.w3.org/2000/svg" xml:space="preserve" width="69.1133mm" height="25.9167mm" version="1.1" style="shape-rendering:geometricPrecision; text-rendering:geometricPrecision; image-rendering:optimizeQuality; fill-rule:evenodd; clip-rule:evenodd"
viewBox="0 0 4535.27 1700.68"
 xmlns:xlink="http://www.w3.org/1999/xlink">
 <defs>
  <style type="text/css">
   <![CDATA[
    .fil0 {fill:#E63A29;fill-rule:nonzero}
    .fil1 {fill:#2873B9;fill-rule:nonzero}
   ]]>
  </style>
 </defs>
 <g id="Слой_x0020_1">
  <metadata id="CorelCorpID_0Corel-Layer"/>
  <g id="_1171158816">
   <path class="fil0" d="M1358.7 1284l2.76 -3.52c1.72,-2.37 4.02,-3.71 7.08,-4.04 3.06,-0.38 6.01,-1.27 8.82,-2.68l51.57 -14.38c4.92,-1.14 11.04,-2.1 18.28,-2.86l11.25 -3.46c3.06,-1.39 7.41,-2.1 13.03,-2.1l11.57 -2.5c0.96,0 1.8,0.91 2.5,2.68 0.69,1.79 1.27,2.62 1.78,2.62 10.99,-7.28 17.97,-10.92 21.02,-10.92l0.71 0 8.43 2.17c1.41,0 2.95,-0.96 4.6,-2.83l1.41 -1.39c5.18,2.3 7.99,3.44 8.44,3.44 3.52,0 7.47,-0.7 11.88,-2.05 4.48,-1.39 8.75,-2.1 12.65,-2.1l10.99 0.71 24.22 -1.42c1.34,0 2.88,0.71 4.55,2.12l7.08 -1.41c6.72,0 13.49,0.89 20.12,2.76 6.72,1.92 14.71,3.31 24.1,4.27 9.4,0.89 16.18,4.09 20.39,9.4l5.94 2.17 4.22 0c6.12,0 9.71,2.48 10.93,7.34 1.34,2.88 4.22,5.68 8.44,8.49l4.6 7.36c-0.52,1.41 -0.71,2.81 -0.71,4.15 0,1.54 2.56,3.08 7.66,4.93l1.41 0.76c0.26,3.51 2.48,7.55 6.71,12.15 4.15,4.53 6.32,13.03 6.32,25.49l0 8.44 1.36 18.2c0,12.41 -3.71,27.42 -11,45 -7.41,17.51 -15.21,29.9 -23.45,36.86 -1.85,6.34 -4.09,9.53 -6.65,9.53 -8.17,7.48 -13.48,11.18 -15.78,11.18 -0.45,0 -1.21,-0.18 -2.12,-0.64 -3.06,5.64 -8.12,10.55 -15.27,14.76 -7.16,4.22 -11.81,6.65 -13.86,7.35 -2.12,0.71 -7.55,2.68 -16.18,5.95l-8.42 -2.05c-3.54,3.26 -5.96,5.05 -7.36,5.24l-18.66 7.73c-15.67,4.15 -26.01,6.33 -30.94,6.33l-8.75 -2.81c-1.41,0 -3.51,1.72 -6.32,5.3l-6.72 1.35c-1.4,-1.35 -5.95,-2.43 -13.6,-3.14 -3.33,2.12 -6.07,3.14 -8.12,3.14l-15.47 2.1c-1.85,0 -3.06,-1.72 -3.51,-5.24l-3.19 1.09 -1.42 4.86c-0.89,0.51 -2.05,0.77 -3.44,0.77l-18.68 -2.12 -8.75 2.12 -14.44 -2.82 -6.98 0.7 -5.99 -2.81 -5.64 0.64 -5.62 -1.34 -6.65 1.34 -1.41 -0.64c-0.96,1.85 -2.17,3.32 -3.57,4.53 -1.41,1.21 -3.25,3.66 -5.63,7.35 -5.29,4.48 -8.75,9.91 -10.16,16.18 -1.39,6.38 -5.49,9.76 -12.32,10.6 -0.45,0.91 -1.15,2.05 -2.04,3.46 0.43,0.51 1.14,2.48 2.04,6l0 1.41c0,5.62 -4.54,11.37 -13.62,17.19 -1.47,8.44 -3.19,14.5 -5.11,18.33 -1.98,3.71 -3.39,6.77 -4.02,9.2 -0.71,2.5 -2.76,4.6 -6.02,6.27l-1.41 2.05 0 10.16c0,0.51 -0.69,1.97 -2.1,4.47 -1.42,2.43 -3.39,6.02 -6.02,10.67l-2.1 3.52 -2.76 11.63c-4.72,3.26 -7.08,7.8 -7.08,13.68l0.71 19.99c0,3.52 -2.3,7.22 -6.85,10.94 -4.6,3.77 -9.13,5.62 -13.54,5.62 -11.43,0 -19.36,-6.9 -23.58,-20.7l-2.1 -2.88c-4.93,-3.96 -7.36,-9.91 -7.36,-17.89 0,-9.13 4.8,-22.88 14.46,-41.08l23.13 -41.79c0.18,-0.51 3.25,-2.62 9.13,-6.4l3.89 1.47c0.91,-0.51 1.42,-1.47 1.42,-2.81 0,-0.45 -1.29,-3.96 -3.9,-10.22l0 -1.41c0,-1.85 0.83,-3.06 2.48,-3.59l2.83 -3.06 -0.78 -7.08c4.29,-6.27 6.52,-10.43 6.72,-12.28l3.57 -8.11c2.3,-5.36 4.17,-8.17 5.56,-8.37 0,-9.4 2.81,-16.3 8.45,-20.78l2.88 -5.99c0.63,-1.35 2.15,-2.17 4.46,-2.43 2.37,-0.26 3.58,-0.58 3.58,-1.03 0,-0.96 -0.38,-2.18 -1.01,-3.52 -0.78,-1.47 -1.09,-2.55 -1.09,-3.51 0,-2.36 1.27,-5.44 3.95,-9.13 2.75,-3.77 4.72,-5.63 5.81,-5.63l5.31 3.13 0 -2.1c-2.3,-2.12 -3.52,-3.84 -3.52,-5.31 0,-1.84 1.09,-4.34 3.14,-7.53 2.17,-3.2 3.46,-5.43 3.89,-6.77l2.81 -3.59c0.52,0 1.67,-3.25 3.58,-9.83 1.85,-6.52 4.48,-9.71 8.05,-9.53l0 -3.45c0,-2.37 2.7,-7.99 8.06,-16.86l18.6 -33.03c0.51,-2.38 2.36,-6.4 5.62,-12.28l-0.64 -8.42c0,-3.77 2.17,-9.6 6.52,-17.57 4.27,-7.93 7.84,-12.03 10.67,-12.03 1.39,0 2.42,0.33 3.01,0.71 0.56,0.58 1.07,0.83 1.59,0.83l5.61 -0.83 11.25 10.24c3.01,2.55 4.8,7.15 5.23,13.73l1.42 2.1c5.87,10.81 8.75,18.35 8.75,22.82 0,5.62 -0.43,9.91 -1.52,12.84 -1.09,3.01 -4.67,6.32 -10.81,10.34 -5.74,6.77 -9.38,12.72 -10.79,17.77 -1.4,5.05 -3.83,9.71 -7.21,14.18 -3.39,4.48 -6.39,11.07 -8.94,19.62 -2.62,8.77 -7.03,15.21 -13.37,19.36 -0.76,6.4 -1.65,11.76 -2.81,16.23l0 0.7c0,1.34 0.91,2.12 2.81,2.12l11.57 -1.41c1.4,0 3.14,0.33 5.11,1.01 2.05,0.71 3.89,1.09 5.81,1.09 1.84,0 4.22,-1.02 7.03,-2.81l2.12 0c0.89,0 3.82,1.09 8.75,3.52l1.41 -0.71c1.4,-2.36 2.81,-3.51 4.21,-3.51l13.68 1.41 6.72 -0.71c3.26,-2.1 8.37,-3.31 15.27,-3.51 6.9,-0.26 11.68,-0.96 14.44,-2.18 2.68,-1.14 5.05,-1.79 7.15,-2.04 2.17,-0.26 4.86,-1.21 8.31,-2.81 3.31,-1.67 6.19,-2.43 8.57,-2.43 5.41,0 12.89,-2.5 22.48,-7.41 3.33,0.96 5.18,1.39 5.63,1.39 4.48,0 8.05,-1.84 10.93,-5.61 2.81,-3.77 5.94,-5.89 9.46,-6.4l21.46 -9.45c1.86,-0.71 5.96,-4.53 12.28,-11.63l6.33 -4.22 4.22 -5.94c0,-0.51 2.22,-1.85 6.65,-4.22 -0.91,-0.43 -1.59,-1.14 -2.12,-2.05l7.73 -8.81c-0.43,-2.3 -0.7,-3.79 -0.7,-4.22l0 -1.41c2.37,-3.57 4.8,-6.14 7.22,-7.74 2.5,-1.67 3.71,-2.68 3.71,-3.19l-3.52 -4.22c3.26,-3.18 4.91,-5.36 4.91,-6.27l-1.39 -10.22 1.39 -17.89c0,-9.2 -0.56,-15.09 -1.72,-17.76 -1.21,-2.68 -1.98,-5.49 -2.5,-8.3 -4.46,-8.56 -10.67,-15.79 -18.66,-21.41 -0.63,-0.45 -1.01,-1.21 -1.01,-2.5l-0.71 -3.45 0 -1.41 -11.25 1.41c-0.43,0 -1.21,-1.21 -2.23,-3.58 -1.08,-2.23 -2.75,-3.45 -5.18,-3.45l-4.93 2.05 -0.63 0c-1.67,0 -5.74,-2.17 -12.34,-6.59 -1.34,-0.51 -4.35,-0.75 -8.75,-0.75l-4.93 -2.11c-1.4,-0.91 -2.61,-1.36 -3.52,-1.36l-2.17 0 -8.05 1.36 -17.89 -1.36 -10.92 -2.15c-3.97,2.81 -6.59,4.2 -7.74,4.2 -0.89,0 -3.19,-0.69 -6.65,-2.05l-0.76 0 -10.49 1.36c-3.31,0.51 -5.94,0.94 -8.11,1.47l-2.11 0c-7.73,0 -13.68,-0.78 -17.97,-2.17l-2.05 0c-2.55,0 -4.72,0.89 -6.32,2.68 -1.65,1.72 -3.19,2.62 -4.6,2.62 -0.96,0 -2.1,-1.54 -3.52,-4.6 -3.06,2.36 -5.23,3.9 -6.65,4.6l-6.37 -2.49c-0.91,1.92 -7.99,3.89 -21.41,6.01l-16.88 3.57 -2.8 -0.83c-5.36,1.92 -9.78,3.26 -13.35,3.89 -3.51,0.71 -6.65,1.74 -9.32,3.01 -2.68,1.29 -5.56,2.18 -8.62,2.63 -3.01,0.45 -7.48,1.67 -13.29,3.56l-5.64 -1.39c-4.47,2.55 -10.92,5.56 -19.36,9.08 -8.43,3.57 -13.68,6.39 -15.78,8.42 -2.17,2.18 -4.15,3.21 -6.01,3.21 -0.43,0 -1.85,-0.26 -4.2,-0.71l-0.66 0c-2.17,0 -5.61,2.38 -10.34,7.16 -4.86,4.85 -9.02,8.24 -12.53,10.35 -3.51,2.18 -6.63,5.43 -9.32,10.09 -2.68,4.55 -8.81,7.86 -18.46,9.96 -0.45,0.52 -0.91,1.21 -1.42,2.12l0 5.62c-3.77,2.12 -7.15,6.19 -10.16,12.28l-2.1 3.57 -0.71 6.65c0,7.03 -0.96,10.79 -2.81,11.18 -1.92,0.52 -3.84,1.54 -5.81,3.08 -1.99,1.52 -3.89,2.23 -5.81,2.23 -4.02,0 -7.73,-3.52 -11.25,-10.55 -3.51,-7.03 -5.24,-11.18 -5.24,-12.59 0,-13.86 4.53,-24.02 13.68,-30.54l25.99 -18.98c8.69,-6.39 16.05,-9.58 22.19,-9.58 1.84,-0.83 3.82,-3.19 5.94,-6.58 2.1,-3.58 6.9,-6.14 14.36,-7.81l5.63 2.18c0.51,0 1.21,-0.96 2.11,-2.88 0.96,-1.78 2.42,-3.39 4.42,-4.53 1.98,-1.21 3.69,-2.68 5.11,-4.6l9.13 -5.95c0.45,0 0.91,-0.2 1.41,-0.7l5.24 1.34c0.51,0 1.15,-0.18 2.17,-0.64 0.91,-0.51 2.55,-0.7 4.93,-0.7 0.89,0 1.59,-1.21 2.05,-3.59 0.96,-1.09 2.22,-1.77 3.89,-2.03z"/>
   <path class="fil0" d="M1807.7 1523.62l5.31 -1.42 2.1 -4.6c11.45,-6.77 19.62,-13.22 24.55,-19.29 0.51,-0.96 1.54,-1.86 3.18,-2.75 1.67,-0.96 3.39,-2.62 5.26,-5.05 8.69,-8.55 19.04,-12.97 30.92,-12.97 14.06,0 21.61,8.57 22.49,25.69l2.1 5.3c1.92,3.21 4.48,9.91 7.93,19.94 3.45,10.09 5.11,16.36 5.11,18.66 0,6.33 -2.04,12.65 -6.01,18.98 -3.24,1.65 -11.1,10.41 -23.51,26.32l-3.51 2.5c-1.92,4.27 -4.35,8.42 -7.41,12.64 -4.67,1.67 -7.03,3.39 -7.03,5.26l0 6.32c0,0.51 -0.51,1.47 -1.54,2.81 -1.08,1.47 -2.55,4.15 -4.4,8.12l-2.8 4.15c-0.96,1.03 -1.92,2.95 -2.83,5.81 -0.96,2.95 -2.23,5.63 -4.02,7.93 -1.79,2.36 -2.68,4.27 -2.68,5.62 0,3.58 4.67,5.3 13.73,5.3 0.45,0 2.17,-0.7 5.25,-2.1l4.91 1.4c0.53,0 1.67,-0.76 3.52,-2.3 1.92,-1.47 4.8,-2.74 8.64,-3.64 3.82,-0.96 7.28,-2.36 10.21,-4.27 2.88,-1.86 6.4,-3.46 10.49,-4.93 4.08,-1.34 8.04,-3.64 11.81,-6.77 3.71,-3.19 7.43,-5.49 11.07,-6.9 3.57,-1.4 6.96,-3.57 10.22,-6.45 3.13,-2.93 6.7,-5.68 10.66,-8.31 4.02,-2.55 10.36,-8.16 18.98,-16.86 5.62,-4.4 9.46,-6.85 11.56,-7.36 0.45,0 2.57,-3.14 6.14,-9.33 3.64,-6.19 7.81,-9.32 12.53,-9.32 4.91,0 7.34,2.37 7.34,7.03 0,2.62 -1.14,5.05 -3.52,7.41l0 2.12 0.71 5.61c0.51,0.71 0.71,1.74 0.71,3.14 0,0.91 -0.91,2.38 -2.62,4.22 -1.73,1.85 -3.01,4.28 -3.7,7.22 -0.7,2.94 -2.95,4.86 -6.72,5.74 -1.34,5.24 -3.18,8.12 -5.36,8.83 -2.3,0.63 -5.36,3.06 -9.32,7.03 -4.02,4.02 -9.58,8.62 -16.88,14.06 -7.28,5.36 -12.26,9.53 -14.94,12.46 -2.68,2.93 -4.48,4.4 -5.43,4.4 -0.45,0 -1.41,-0.43 -2.81,-1.39 -1.41,-0.96 -2.38,-1.41 -2.81,-1.41 -1.41,0 -2.37,1.59 -2.75,4.92l-1.47 3.52c-3.08,1.92 -4.8,2.81 -5.24,2.81l-2.12 -0.71 -1.39 0c-2.83,0 -4.22,1.03 -4.22,3.14l2.1 3.51 0 0.71c0,3.31 -1.92,4.93 -5.62,4.93 -2.62,0 -10.11,4.34 -22.49,13.02l-10.16 2.05 -8.44 4.6c-2.81,-1.59 -4.6,-2.43 -5.31,-2.43l-5.61 1.73 -10.16 0.7c-0.25,0 -4.53,-2.36 -12.84,-7.03 -8.31,-4.65 -13.29,-9.32 -14.89,-14.06 -1.67,-4.65 -3.77,-9.4 -6.32,-14.18 -2.62,-4.8 -3.9,-8.12 -3.9,-10.03 0,-11.25 0.96,-19.24 2.81,-24.02 1.85,-4.93 3.01,-8.39 3.52,-10.74 0.45,-2.43 1.84,-4.93 4.09,-7.61 2.17,-2.68 3.94,-7.09 5.43,-13.17 6.75,-13.6 11.42,-21.92 13.98,-24.98 2.62,-2.93 4.67,-6.77 6.01,-11.25l4.6 -6.27c0.43,-0.43 1.09,-2.3 2.05,-5.49 0.96,-3.14 2.1,-4.98 3.57,-5.43 1.84,-3.26 2.75,-5.36 2.75,-6.27 0,-6.83 -3.06,-10.22 -9.15,-10.22 -1.14,0 -2.42,1.21 -3.82,3.71 -1.34,2.43 -4.67,4.78 -9.65,7.21 -5.05,2.3 -8.19,4.09 -9.33,5.26 -1.21,1.14 -3.71,2.61 -7.61,4.4 -3.84,1.72 -7.15,4.47 -10.03,8.24l-5.95 2.8c-1.84,4.42 -3.51,6.9 -4.91,7.36 -1.41,0.45 -5.68,1.67 -12.99,3.52 -0.51,0.25 -1.65,1.66 -3.51,4.22 -1.9,2.55 -4.6,3.89 -8.05,3.89 -2.81,2.81 -5.69,6.07 -8.44,9.84 -0.96,0 -3.39,0.96 -7.41,2.75l-7.03 1.8c-1.92,1.46 -3.96,3.64 -6.19,6.7 -2.17,3.06 -6.39,4.6 -12.46,4.6 -3.52,0 -5.24,-2.88 -5.24,-8.49 0,-11.5 4.02,-20.58 12.14,-27.41 8.04,-6.77 13.92,-10.41 17.69,-10.87 3.77,-0.45 6.07,-1.84 7.03,-4.22 0.89,-2.3 3.19,-4.27 6.9,-5.81 3.59,-1.54 7.79,-4.93 12.59,-10.16 4.86,-5.3 10.04,-8.87 15.65,-10.79l4.22 -4.85z"/>
   <path class="fil0" d="M2279.08 1396.76l-2.1 -13.68 0 -2.12c0,-11.05 3.77,-17.12 11.25,-18.28 1.65,-0.26 6.58,-1.78 14.76,-4.53 4.22,0.89 8.62,4.6 13.22,11.04 4.53,6.4 6.78,12.14 6.78,17.01 0,0.51 -0.33,1.52 -1.04,3.12 -0.69,1.67 -1.14,4.8 -1.39,9.34 -0.2,4.6 -2.5,8.55 -6.85,12.01 -4.34,3.39 -9,5.04 -13.92,5.04 -3.26,0 -7.41,-2.23 -12.46,-6.83 -5.04,-4.6 -7.72,-8.57 -8.24,-12.13zm-151.75 175.66l5.62 -4.88 2.12 0c1.59,0 4.08,-1.72 7.41,-5.29l3.51 -1.41c4.66,-7.03 8.75,-11.12 12.26,-12.26l5.63 -4.17c0.89,-1.01 2.3,-1.84 4.08,-2.55 1.74,-0.7 4.55,-3.01 8.45,-6.82 3.84,-3.85 6.97,-5.81 9.27,-5.81 2.36,0 4.22,0.25 5.69,0.7 1.39,-2.82 4.15,-5.56 8.42,-8.26 4.22,-2.68 7.61,-5.94 10.16,-9.63l4.6 -2.12c3.71,-1.9 7.1,-4.27 10.03,-7.21 2.93,-2.95 6.72,-4.34 11.45,-4.34 6.77,0 13.85,3.44 21.26,10.34 7.36,6.84 11.07,13.5 11.07,19.82l-6.02 27.4c-3.96,20.2 -8.44,30.74 -13.35,31.64l-1.41 7.41c-3.26,2.3 -4.86,4.22 -4.86,5.56l2.05 8.42c0,1.21 -1.29,3.01 -3.84,5.26 -0.44,0 -0.71,0.76 -0.71,2.22l0 14.31c0,2.62 -1.65,4.67 -4.91,6.39 0.43,0.45 1.14,0.83 2.1,1.34 1.41,-1.34 4.55,-2.04 9.53,-2.04l5.56 0.7 7.74 -7.73c1.59,-0.44 3.89,-1.65 6.9,-3.39 2.86,-1.72 7.86,-4.08 14.82,-6.9l46.01 -35.07c6.32,-6.34 11.04,-9.48 14.38,-9.48 3.45,0 5.24,2.17 5.24,6.65 0,5.18 -0.96,9.4 -2.93,12.84 -2.05,3.39 -3.84,7.48 -5.51,12.28 -1.59,4.78 -3.57,8.11 -5.74,10.09 -2.25,1.79 -4.02,3.84 -5.43,6.07 -1.42,2.17 -5.24,5.43 -11.43,9.73 -6.21,4.21 -11.5,8.43 -15.79,12.77 -4.34,4.35 -7.91,7.48 -10.79,9.27l-15.01 10.93 -2.18 3.51c-0.45,0.51 -2.62,1.47 -6.44,3.06 -3.9,1.46 -7.36,3.39 -10.36,5.69l-6.32 3.51c-1.47,1.03 -3.71,1.59 -6.9,1.86 -3.14,0.18 -5.89,1.52 -8.24,4.02 -2.3,2.43 -4.22,3.69 -5.64,3.69l-5.23 -0.76 -7.09 2.1c-3.91,0 -8.82,-2.35 -14.58,-7.15 -5.74,-4.78 -8.54,-9.89 -8.54,-15.27l0 -2.22 0.69 -4.86c0,-0.91 -0.69,-3.39 -2.11,-7.15 -1.41,-3.97 -2.1,-6.09 -2.1,-6.52l0.69 -4.98 -0.69 -2.05c0,-6.39 0.43,-10.29 1.4,-11.96 0.96,-1.67 1.67,-3.96 2.12,-6.84 0.51,-2.93 0.94,-5.36 1.39,-7.21l1.72 -8.75c0.96,-2.88 2.12,-4.74 3.52,-5.69 0.52,-1.86 1.41,-5.05 2.88,-9.47l1.34 -6.38 3.59 -4.86c1.84,-1.79 2.93,-4.34 3.31,-7.55 0.32,-3.13 1.54,-6.52 3.71,-10.03 2.04,-3.51 3.06,-5.54 3.06,-6.32 0,-2.81 -1.4,-4.22 -4.15,-4.22 -0.96,0 -3.9,1.92 -8.82,5.63l-6.33 -2.12c-0.45,0 -1.72,1.21 -3.84,3.52 0,1.03 -1.01,1.67 -3.19,2.12 -2.05,0.51 -4.09,2.22 -5.94,5.3l-2.83 0.69 -4.53 -2.1 -1.41 0c-2.36,0 -3.82,2.55 -4.2,7.66 -2.63,3.77 -6.02,6.27 -10.24,7.42l-7.74 2.11c-2.55,0.96 -4.47,3.06 -5.61,6.32 -1.21,3.33 -3.52,6.19 -7.03,8.89 -3.52,2.74 -5.89,4.15 -7.03,4.15 -6.59,0 -9.91,-3.64 -9.91,-10.92l2.88 -16.5 -0.71 -2.15z"/>
   <path class="fil0" d="M2784.08 1625.2l1.41 0 3.52 1.34c0.43,0 0.96,-0.18 1.39,-0.63 0,-4.02 1.92,-7.41 5.64,-10.22 1.21,-4.48 3.82,-7.86 7.99,-10.29 4.02,-2.3 10.6,-6.14 19.49,-11.5l8.81 -7.73 4.22 -2.17 2.88 -3.46c2.55,-3.06 4.98,-4.6 7.35,-4.6 3.52,0 5.24,1.29 5.24,3.9l-3.13 7.04 1.41 11.56c0,4.23 -1.47,7.99 -4.35,11.25 -2.93,3.31 -7.48,8.11 -13.62,14.38l-17.88 18.96 -9.53 4.93c-2.37,1.47 -4.4,3.06 -6.27,4.98l-13.8 11.58c0,3.26 -1.09,5.74 -3.14,7.34l-5.61 0 -2.81 1.41c-1.67,4.48 -6.52,8.88 -14.51,13.05l-4.93 3.51c-1.59,1.4 -3.06,2.1 -4.48,2.1l-9.89 -1.39 -6.72 1.39c-1.84,0 -4.4,-0.96 -7.53,-2.81 -3.21,-1.84 -6.39,-3.31 -9.65,-4.34 -3.31,-1.09 -7.48,-5.43 -12.52,-12.97 -5.05,-7.74 -7.8,-12.72 -8.31,-15.02 0,-0.96 -0.51,-2.5 -1.54,-4.72 -1.02,-2.17 -1.59,-3.59 -1.59,-4.09 0,-0.38 1.08,-2.81 3.13,-7.03l0 -0.71c0,-0.63 -0.58,-2.3 -1.92,-4.91 -1.27,-2.57 -1.92,-5.68 -1.92,-9.4 0,-2.17 -0.69,-4.86 -2.1,-8.12 1.85,-1.92 2.81,-3.31 2.81,-4.27 0,-0.83 -0.31,-2.24 -1.02,-4.04 -0.77,-1.72 -1.08,-3.06 -1.08,-4.08l2.1 -17.13 -1.4 -8.82 0.69 -8.43c0,-4.93 -2.1,-7.43 -6.25,-7.43 -1.86,0 -4.22,1.35 -7.03,3.97l-2.5 0.64c-6.27,3.08 -10.74,5.56 -13.29,7.61 -2.55,1.99 -5.24,2.93 -8.05,2.93 -1.41,1.41 -4.09,2.7 -8.06,3.91l-2.74 2.1c-0.96,0.96 -2.82,2.3 -5.63,4.23 0,0.63 -4.4,4.65 -13.1,11.75 -8.75,7.15 -16.68,13.87 -23.71,20.25 -6.96,6.27 -12.01,9.73 -15.2,10.36 -3.13,0.51 -4.72,3.51 -4.72,8.87 0,1.04 -2.12,2.81 -6.27,5.69 -0.51,0 -2.94,2.55 -7.36,7.68 -3.77,-2.83 -5.87,-4.17 -6.32,-4.17 -3.06,0 -5.31,3.77 -6.72,11.63 -1.4,2.95 -5.16,4.86 -11.23,5.56 -0.45,0.2 -1.29,1.99 -2.5,5.24l-1.41 1.41 -3.52 0c-0.43,0 -2.1,1.34 -4.91,4.02 -2.82,2.68 -5.3,4.42 -7.42,5.18 -3.06,6.27 -5.62,9.46 -7.79,9.46 -0.89,0 -2.23,-0.45 -4.02,-1.39 -1.72,-0.91 -3.96,-1.8 -6.52,-2.5 -2.55,-0.71 -5.43,-3.52 -8.56,-8.57 -3.19,-5.03 -4.73,-9.32 -4.73,-12.84 0,-26.01 4.98,-40.12 15.02,-42.55l0.77 -1.41 0 -2.81c0,-3.01 1.35,-5.11 4.02,-6.52 2.68,-1.21 5.49,-3.84 8.24,-7.66 2.88,-3.84 4.72,-6.02 5.62,-6.47l4.6 0c0.96,0 1.41,-2.48 1.41,-7.41 0,-1.39 0.58,-2.68 1.72,-3.84 1.21,-1.27 1.92,-2.93 2.18,-5.11 0.2,-2.23 1.92,-5.87 5.05,-10.93 3.13,-4.98 4.72,-7.99 4.72,-9l-0.71 -1.35c-5.87,5.42 -10.03,8.3 -12.64,8.81 -2.57,0.45 -6.09,3.77 -10.49,10.16l-5.69 -1.08c-9.84,7.22 -15.98,11.44 -18.28,12.33 -2.3,0.96 -4.93,3.64 -7.74,8.12 0,1.34 -0.83,2.3 -2.43,2.76 -1.72,0.45 -4.78,2.35 -9.2,5.61l-2.1 0c-5.89,0 -8.82,-4.22 -8.82,-12.64l7.35 -19.94c2.1,-6.4 7.08,-11.76 14.89,-16.03 7.86,-4.35 14.44,-8.57 19.87,-12.53 5.36,-3.95 10.79,-6 16.1,-6.25l2.48 -3.53c7.99,-3.06 13.37,-7.84 16.18,-14.49 2.81,-6.47 6.65,-9.86 11.56,-9.86 12.91,0 22.7,4.8 29.52,14.33 6.72,9.46 10.16,17.06 10.16,22.6l0.71 9.53c0,3.26 -0.71,7.86 -2.11,13.68 -2.82,4.23 -4.22,7.41 -4.22,9.53 0,1.85 1.14,2.74 3.52,2.74 1.39,0 3.26,-0.96 5.61,-2.93 2.3,-1.98 4.93,-3.77 7.86,-5.43 2.94,-1.59 4.68,-3.06 5.11,-4.22 2.37,-5.62 6.46,-9.51 12.34,-11.63 5.81,-2.11 9.45,-3.83 10.87,-5.24l3.51 -2.81 2.81 -5.31c6.27,-2.75 10.49,-5.36 12.66,-7.66 2.05,-2.38 4.86,-3.9 8.37,-4.6 3.51,-0.71 7.53,-2.83 11.94,-6.34l5.3 -1.4 4.86 -2.76c0.45,-0.51 1.87,-1.08 4.22,-1.79 2.38,-0.69 5.81,-1.98 10.36,-3.64 4.6,-1.84 7.66,-2.68 9.33,-2.68 11.94,0 21.33,4.8 28.24,14.31 6.9,9.73 10.36,17.45 10.36,23.33l-0.71 6.27 1.4 9.51 0 1.34 -2.81 19.36 0.71 6.65c0,10.99 -2.3,18.66 -6.98,22.88 -1.21,0.45 -1.78,1.67 -1.78,3.46l0 3.19 7.03 14.76c2.11,5.18 3.77,7.73 4.91,7.73l11.25 -3.2c3.33,-0.89 6.01,-3.31 8.11,-7.34 1.92,-0.96 5.18,-3.77 9.91,-8.44 1.34,-3.77 3.59,-5.56 6.65,-5.56z"/>
   <path class="fil0" d="M3293.31 1331.42l-1.41 0 -4.93 2.11c-8.24,0.45 -13.73,1.72 -16.66,3.71 -2.95,1.98 -4.93,2.99 -5.83,2.99l-2.81 -1.09 -4.22 0c-4.02,1.61 -6.77,2.57 -8.43,2.83 -1.67,0.18 -5.56,1.46 -11.75,3.89 -6.27,2.36 -9.6,3.45 -10.03,3.45 -1.67,0 -3.64,-0.69 -5.95,-2.1l-2.17 0.7c-3.71,1.92 -6.32,2.86 -7.73,2.86 -3.9,0 -5.95,-0.94 -5.95,-2.86 0,-1.41 0.18,-2.55 0.51,-3.64 0.37,-1.08 0.51,-3.2 0.37,-6.34 -0.12,-3.11 0.38,-6.32 1.59,-9.51 1.16,-3.2 1.74,-4.86 1.74,-5.11l-3.51 -13.29c-2.38,-11.25 -6.47,-16.94 -12.28,-16.94 -4.47,0 -10.16,4.15 -17.24,12.34 -2.05,4.4 -4.86,6.65 -8.45,6.65 -0.7,0 -1.59,1.27 -2.75,3.77 -1.21,2.43 -2.23,4.22 -3.19,5.43 -3.97,8.42 -7.91,14.11 -11.96,17.11 -3.95,3.14 -7.53,7.93 -10.67,14.64 -3.18,6.65 -5.68,10.03 -7.53,10.03l-5.76 -0.78c-0.43,0 -1.01,0.33 -1.72,0.78 -0.71,0.43 -2.55,1.14 -5.56,2.05 -2.86,0.96 -6.58,2.55 -10.93,4.85 -4.34,2.18 -9.32,3.26 -14.94,3.26l-0.78 0 -3.13 -1.34 -0.69 0 -3.53 3.44 -4.91 1.42c-2.81,-0.91 -4.6,-1.42 -5.24,-1.42 -4.72,0 -8.51,0.83 -11.45,2.5 -3.01,1.65 -4.85,2.49 -5.81,2.49l-5.56 1.34c-2.43,1.03 -6.58,1.79 -12.51,2.7 -5.95,0.81 -10.41,2.1 -13.37,4.02 -2.94,1.84 -5.56,2.88 -7.92,2.88l-4.54 -0.78 -14.44 3.84c-10.55,2.62 -17.32,4.78 -20.38,6.52 -3.06,1.72 -5.23,2.61 -6.65,2.61l-1.41 0 -3.82 -1.39 -0.71 0 -14.44 5.62c-39.81,3.77 -59.75,17.26 -59.75,40.39 0,4.27 1.59,8.95 4.72,14.24 3.21,5.3 5.95,7.93 8.31,7.93l2.74 -0.76c9.91,-8.64 16.25,-13.43 19.06,-14.33l35.77 -9.89c2.38,0.51 3.77,0.76 4.3,0.76 3.51,0 9,-1.99 16.48,-6.07l8.05 0.83c3.77,-2.37 6.59,-3.58 8.44,-3.58l3.19 0 14.38 -4.22c7.03,-4.4 17.44,-7.21 31.24,-8.43l15.53 -1.74 4.93 0.66c0.91,0 2.17,-0.96 3.84,-3.14 1.67,-2.12 4.22,-4.22 7.73,-6.34 4.73,1.41 7.03,2.5 7.03,3.2l15.07 -7.4c0.96,0.96 1.67,1.9 2.12,2.86 -0.45,6.27 -2.88,13.04 -7.23,20.14 -4.27,7.15 -7.28,12.84 -8.94,17.06 -1.27,3.31 -22.75,63.18 -22.75,63.18l-6.39 67.49 -2.11 30.92 2.11 7.03 -0.69 13.75c0,5.11 3.06,16.73 9.2,34.81 6.07,18.02 15.32,27.04 27.78,27.04 2.3,0 5.18,-1.54 8.57,-4.55 3.44,-3.06 5.24,-6.27 5.49,-9.38 0.26,-3.13 0.71,-6.08 1.41,-8.82 0.71,-2.62 1.02,-4.67 1.02,-6.07 0,-16.68 -3.44,-28.95 -10.34,-36.8 -6.98,-7.81 -10.36,-14.96 -10.36,-21.48 0,-0.51 0.45,-1.21 1.41,-2.23 -1.41,-5.56 -2.1,-9.4 -2.1,-11.58l2.1 -15.78 -0.7 -5.61c3.77,-7.68 5.63,-14.13 5.63,-19.36l0 -2.05c-0.52,-2.12 -0.71,-3.46 -0.71,-3.89 0,-0.71 1.59,-6.65 4.93,-17.97l-1.41 -5.61c0,-3.52 1.41,-6.59 4.22,-9.4l1.02 -2.81c0,-1.92 0.38,-3.19 1.08,-3.89 0.71,-0.78 1.67,-3.26 2.81,-7.55 1.21,-4.33 3.08,-8.5 5.69,-12.26 2.55,-3.89 5.12,-7.48 7.68,-10.74l6.33 -9.58c1.92,-1.34 3.89,-3.31 6.01,-5.74 2.1,-2.43 4.46,-3.89 7.03,-4.42l1.47 -2.03c1.59,-4.67 4.98,-7.73 10.16,-9.2l15.85 -28.76c2.3,-1.67 3.52,-2.68 3.52,-3.19 3.51,-8.44 8.29,-14.13 14.36,-17.19l17.97 -3.52c3.51,-0.96 5.74,-1.34 6.65,-1.34l8.49 -1.54c11.69,-3.51 17.88,-5.24 18.66,-5.24 1.52,0 3.64,-0.45 6.27,-1.34 2.55,-0.96 4.98,-1.48 7.34,-1.48 0.96,0 1.41,0.33 1.41,0.7 4.91,6.33 7.79,9.53 8.82,9.53 5.36,0 10.79,-3.51 16.16,-10.54l16.1 -20.39c1.47,-4.4 3.33,-8.43 5.51,-11.94 2.23,-3.52 3.31,-5.95 3.31,-7.43 0,-6.7 -3.84,-10.14 -11.56,-10.14z"/>
  </g>
  <g id="_1171178400">
   <path class="fil1" d="M-0 514.78c0,-138.15 47.02,-257.19 141.08,-357.13 94.06,-99.88 208.2,-149.9 342.45,-149.9 106.78,0 218.97,14.25 336.56,42.61 4.91,1.02 11.75,38.02 20.56,111 8.82,72.9 13.24,116.36 13.24,130.09 0,7.8 -8.82,11.7 -26.46,11.7 -20.58,0 -35.78,-2.43 -45.56,-7.28 -4.92,-18.6 -12.78,-37.76 -23.51,-57.33 -10.79,-19.61 -26.97,-41.72 -48.51,-66.13 -21.6,-24.47 -51.45,-44.34 -89.64,-59.56 -38.22,-15.14 -81.34,-22.75 -129.35,-22.75 -176.35,0 -264.54,130.29 -264.54,390.94 0,73.44 9.53,141.79 28.64,204.99 19.17,63.2 52.91,117.78 101.47,163.84 48.43,46.15 108.95,69.09 181.47,69.09 43.07,0 74.45,-7.79 94.06,-23.46 10.8,-8.94 16.16,-23.56 16.16,-44.08l0 -92.65 0 -10.29c0,-49.98 -3.45,-87.67 -10.29,-113.1 -7.86,-26.52 -40.12,-39.76 -96.99,-39.76 -3.97,0 -6.14,-8.04 -6.65,-24.21 -0.44,-16.16 1.21,-26.2 5.18,-30.16 17.64,1.03 40.9,2.24 69.77,3.71 28.89,1.46 55.4,2.75 79.37,3.64 24.02,0.96 47.27,1.54 69.85,1.54 14.69,0 80.82,-3.01 198.39,-8.89 2.95,8.89 4.42,18.66 4.42,29.4 0,17.64 -1.97,26.46 -5.89,26.46 -22.55,0 -48.56,7.34 -77.96,22.1 -15.65,7.81 -23.44,46.46 -23.44,116.05l0 85.24c0,17.7 1.47,30.92 4.4,39.67 2.93,8.89 4.42,14.2 4.42,16.18 0,16.68 -10.29,30.41 -30.87,41.15 -36.3,18.66 -64.48,32.13 -84.55,40.45 -20.05,8.31 -55.84,17.64 -107.28,27.93 -51.44,10.22 -108.95,15.39 -172.65,15.39 -129.33,0 -239.54,-48.25 -330.67,-144.74 -91.13,-96.49 -136.68,-210.35 -136.68,-341.72z"/>
   <path class="fil1" d="M1195.45 334.31c13.42,0 60.38,-1.99 140.9,-6.06 1.99,6.06 2.93,12.13 2.93,18.07 0,12.84 -1.34,19.17 -3.95,19.17 -6.06,0 -18.09,2.88 -36.22,8.56 -18.15,5.74 -27.8,10.93 -29.14,15.6 -4.73,18.08 -7.11,44.92 -7.11,80.51l0 381.36c0,32.76 2.68,56.93 8.06,72.38 3.31,10.74 26.14,16.1 68.36,16.1l26.21 0c41.59,0 79.1,-8.68 112.64,-26.19 11.45,-6.02 24.35,-17.38 38.8,-34.18 14.36,-16.81 25.61,-35.54 33.67,-56.37 1.34,-4.02 6.07,-6 14.11,-6 16.1,0 26.14,1.98 30.18,6 -32.86,92.66 -50.93,150.3 -54.32,173.11 -38.22,0 -490.99,1.98 -490.99,1.98 -2.7,-2.61 -4.04,-8.37 -4.04,-17.12 0,-13.35 1.34,-20.07 4.04,-20.07 8.05,0 20.63,-2.43 37.75,-7.08 17.06,-4.68 26.66,-9.66 28.64,-15.09 4.02,-15.39 6.06,-44.85 6.06,-88.5l0 -384.36c0,-40.88 -2.68,-66.06 -8.04,-75.46 -3.39,-5.36 -12.79,-10.87 -28.18,-16.61 -15.47,-5.68 -26.85,-8.56 -34.2,-8.56 -2.68,0 -4.02,-5.69 -4.02,-17.07 0,-12.06 0.63,-18.78 1.99,-20.17 92.58,4.08 141.21,6.06 145.87,6.06z"/>
   <path class="fil1" d="M1954.08 373.55c-35.59,0 -65.12,12.91 -88.57,38.72 -23.45,25.96 -39.68,57.58 -48.76,95.15 -9.08,37.57 -13.6,80.46 -13.6,128.7 0,34.31 3.19,68 9.58,101.16 6.32,33.22 16.1,65.75 29.14,97.63 13.1,31.88 32.08,57.63 56.88,77.45 24.78,19.8 53.66,29.65 86.51,29.65 50.3,0 88.04,-25.45 113.17,-76.44 25.18,-50.99 37.76,-113.68 37.76,-188.1 0,-36.95 -2.88,-71.97 -8.57,-105.18 -5.74,-33.16 -14.94,-65.37 -27.66,-96.56 -12.78,-31.25 -31.51,-56.05 -56.37,-74.45 -24.79,-18.41 -54.63,-27.73 -89.51,-27.73zm-212.79 525.19c-63.38,-66.38 -95.08,-146.52 -95.08,-240.38 0,-94 31.69,-174.26 95.08,-240.97 63.39,-66.77 139.36,-100.13 227.86,-100.13 88.57,0 164.66,33.36 228.44,100.13 63.7,66.71 95.53,146.97 95.53,240.97 0,93.86 -31.83,174 -95.53,240.38 -63.78,66.45 -139.87,99.57 -228.44,99.57 -88.5,0 -164.47,-33.11 -227.86,-99.57z"/>
   <path class="fil1" d="M2750.91 817.23c0,-93.23 -41.28,-139.82 -123.79,-139.82 -22.09,0 -39.23,1.74 -51.3,5 -7.35,2.74 -11.06,5.69 -11.06,9.08l0 226.33c0,6.06 2.37,10.79 7.03,14.13 6.72,4.72 31.9,7.03 75.48,7.03 69.07,0 103.64,-40.52 103.64,-121.74zm-76.49 -205.24c10.09,-5.36 17.77,-10.36 23.2,-15.01 5.36,-4.73 11.18,-14.69 17.57,-29.78 6.37,-15.01 9.51,-34.31 9.51,-57.76 0,-83.19 -30.8,-124.86 -92.53,-124.86 -29.52,0 -48.94,1.39 -58.34,4.08 -6.07,1.29 -9.08,5.31 -9.08,12.03l0 91.56 0 114.69c0,9.4 17.44,14.13 52.35,14.13 26.12,0 45.3,-3.01 57.31,-9.08zm-250.48 238.53l0 -380.39c0,-36.86 -1.98,-63 -6.02,-78.47 -2.03,-5.36 -11.94,-11.37 -29.71,-18.08 -17.82,-6.72 -30.36,-10.11 -37.76,-10.11 -2.68,0 -4.02,-5.99 -4.02,-18.13 0,-10.68 1.09,-17.06 3.06,-19.11 53.61,3.39 102.93,5.11 147.86,5.11 22.19,0 72.79,-0.71 151.97,-2.05 24.78,0 49.9,3.18 75.39,9.58 25.5,6.34 50.17,16.3 73.99,29.72 23.83,13.35 43.07,32.08 57.83,56.22 14.76,24.22 22.17,52.02 22.17,83.57 0,34.9 -10.09,63.72 -30.21,86.53 -20.07,22.8 -37.9,37.19 -53.31,43.2 -5.41,2.05 -7.03,4.09 -5.03,6.07 23.44,4.02 47.98,20.63 73.48,49.77 25.43,29.14 38.2,66.59 38.2,112.21 0,57.69 -23.44,103.77 -70.41,138.35 -46.96,34.56 -109.46,55.13 -185.89,53.8l-294.05 0c-2.7,-2.62 -3.97,-8.37 -3.97,-17.13 0,-13.35 1.27,-20.05 3.97,-20.05 8.04,0 20.62,-2.37 37.75,-7.03 17.06,-4.72 26.66,-9.73 28.69,-15.14 4.04,-15.41 6.02,-44.87 6.02,-88.45z"/>
   <path class="fil1" d="M3189.59 716.7c20.13,1.98 44.92,3.01 74.45,3.01 26.83,0 50.66,-0.65 71.43,-1.99l3.01 -4.98 -72.39 -180.19 -78.54 180.19c0,2.62 0.71,3.96 2.05,3.96zm164.99 244.48c14.76,0 29.83,-3.19 45.3,-9.51 15.39,-6.47 23.13,-15.02 23.13,-25.76 0,-1.21 -8.45,-23.76 -25.18,-67.34l-30.16 -73.43c-2.68,-2.74 -5.05,-4.02 -7.03,-4.02 -12.79,-0.71 -45,-1.02 -96.61,-1.02 -44.29,0 -78.16,0.31 -101.6,1.02 -2.7,0 -5.05,1.67 -7.1,5.05l-33.16 76.42c-13.42,30.22 -20.12,50.61 -20.12,61.35 0,10.72 6.06,19.16 18.14,25.23 12.08,5.94 22.63,9.52 31.7,10.54 9,0.89 16.86,1.47 23.64,1.47 1.98,0.7 3.01,6.01 3.01,16.1 0,10.03 -0.7,17.13 -2.05,21.16 -8.69,-0.71 -219.69,-0.71 -232.41,0 -2.68,-2.76 -4.02,-7.74 -4.02,-15.09 0,-14.11 0.63,-21.14 1.97,-21.14 8.06,0 21.48,-3.52 40.26,-10.54 18.79,-7.11 30.54,-14.33 35.27,-21.67 5.36,-8.06 10.87,-17.97 16.56,-29.72 5.68,-11.76 10.21,-21.27 13.6,-28.7l4.98 -12.01 222.37 -511.13c7.41,-17.44 19.82,-26.19 37.19,-26.19 10.11,0 18.15,4.4 24.22,13.1l206.2 510.17c12.78,30.8 23.83,58.34 33.24,82.49 4.02,10.74 15.07,18.98 33.22,24.61 18.1,5.67 31.83,8.55 41.23,8.55 2.68,0 4.02,5.68 4.02,17.13 0,11.37 -0.63,18.08 -1.98,20.13l-297.83 0c-3.84,0 -3.96,-9.59 -3.96,-20.65 0,-11.1 1.27,-16.61 3.96,-16.61z"/>
   <path class="fil1" d="M3940.18 9c19.94,0 89.91,-3.06 209.84,-9 3.01,9 4.47,18.02 4.47,26.95 0,18.98 -1.97,28.51 -5.94,28.51 -9,0 -26.97,4.22 -53.92,12.72 -26.97,8.49 -41.48,16.28 -43.53,23.26 -7.03,26.97 -10.47,66.96 -10.47,119.94l0 568.19c0,48.87 3.95,84.91 12.01,107.92 4.98,15.97 38.98,23.96 101.85,23.96l39.06 0c61.98,0 117.95,-12.91 167.92,-38.98 16.92,-8.95 36.15,-26.01 57.69,-50.99 21.41,-24.99 38.28,-52.9 50.23,-83.97 1.98,-5.95 9,-8.95 20.95,-8.95 23.96,0 38.98,3.01 44.92,8.95 -48.89,137.97 -75.92,223.91 -80.9,257.9 -57,0 -731.51,3.01 -731.51,3.01 -4.02,-4.02 -6.07,-12.52 -6.07,-25.56 0,-19.94 2.05,-29.96 6.07,-29.96 11.96,0 30.74,-3.46 56.17,-10.49 25.5,-6.9 39.74,-14.38 42.75,-22.42 6.01,-23 9,-66.97 9,-131.95l0 -572.67c0,-60.97 -4.02,-98.41 -12.01,-112.47 -5.04,-7.99 -18.98,-16.23 -41.99,-24.72 -23,-8.5 -39.99,-12.72 -50.99,-12.72 -3.94,0 -5.94,-8.44 -5.94,-25.51 0,-17.95 0.96,-27.91 3.01,-29.96 137.9,5.94 210.35,9 217.32,9z"/>
  </g>
 </g>
</svg>
