<?xml version="1.0" encoding="UTF-8"?>
<!DOCTYPE svg PUBLIC "-//W3C//DTD SVG 1.1//EN" "http://www.w3.org/Graphics/SVG/1.1/DTD/svg11.dtd">
<!-- Creator: CorelDRAW 2018 (64-Bit) -->
<svg xmlns="http://www.w3.org/2000/svg" xml:space="preserve" width="26.6429mm" height="26.6316mm" version="1.1" style="shape-rendering:geometricPrecision; text-rendering:geometricPrecision; image-rendering:optimizeQuality; fill-rule:evenodd; clip-rule:evenodd"
viewBox="0 0 1129.42 1128.94"
 xmlns:xlink="http://www.w3.org/1999/xlink">
 <defs>
  <style type="text/css">
   <![CDATA[
    .fil0 {fill:#E63A29;fill-rule:nonzero}
   ]]>
  </style>
 </defs>
 <g id="Слой_x0020_1">
  <metadata id="CorelCorpID_0Corel-Layer"/>
  <g id="_1171144256">
   <path class="fil0" d="M309.87 59.43c0,0 173.9,-108.23 434.92,-32.56 160.82,46.64 -41.12,256.22 -240.87,106.46 0,0 -70.51,-62.04 -194.05,-73.89z"/>
   <path class="fil0" d="M822.04 1069.52c0,0 -173.9,108.23 -434.95,32.56 -160.78,-46.61 41.12,-256.22 240.9,-106.41 0,0 70.46,61.99 194.05,73.85z"/>
   <path class="fil0" d="M69.67 292.87c0,0 87.13,-160.37 303.94,-122.35 104.15,18.29 128.25,119.42 333.82,94.82 139.4,-16.68 182.91,-165.2 182.91,-165.2 0,0 142.21,100.27 203.42,254.16 69.47,174.81 19.52,243.83 -0.54,263.19 -9.7,9.37 -128.87,144.69 -380.18,54.69 -251.27,-89.98 -241.9,-194.13 -463.19,-250.35 -63.41,-16.18 -108.77,-18.78 -172.51,11.23 -63.77,30.05 -42.59,-88.7 -7.67,-140.19z"/>
   <path class="fil0" d="M23.89 523.1c49.28,-21.59 177.2,-64.68 334.72,25.29 157.57,90.03 321.68,342.87 699.35,175.76 76.74,-33.97 36.2,106.1 -72.03,187.13 -97.3,72.82 -219.48,78.96 -329.2,-2.6 -109.72,-81.57 -267.16,-67.75 -329.04,-14.29 -61.87,53.45 -83.79,134.12 -97.33,123.99 -42.9,-31.94 -156.33,-124.99 -204.63,-288.29 -20.47,-69.39 -44.99,-188.11 -1.85,-207z"/>
  </g>
 </g>
</svg>
